<?xml version="1.0" encoding="utf-8"?>
<!-- Generator: Adobe Illustrator 24.1.3, SVG Export Plug-In . SVG Version: 6.00 Build 0)  -->
<svg version="1.1" id="Layer_3" xmlns="http://www.w3.org/2000/svg" xmlns:xlink="http://www.w3.org/1999/xlink" x="0px" y="0px"
	 viewBox="0 0 232.9 193.1" style="enable-background:new 0 0 232.9 193.1;" xml:space="preserve">
<g>
	<path d="M187.1,101.4c-25.3,0-45.8,20.6-45.8,45.8s20.6,45.8,45.8,45.8s45.8-20.6,45.8-45.8S212.4,101.4,187.1,101.4z M187.1,184.6
		c-20.6,0-37.3-16.7-37.3-37.3s16.7-37.3,37.3-37.3s37.3,16.7,37.3,37.3S207.7,184.6,187.1,184.6z"/>
	<path d="M175.4,168.4l35.2-20.3l-35.2-20.3V168.4z M181,137.6l18.2,10.5L181,158.6V137.6z"/>
	<path d="M30.9,29.5h20.3c-0.8,3.1-1.8,6.7-3.1,10.7l5.4,1.7c1.5-4.7,2.6-8.8,3.5-12.4h32.1c-0.8,3.1-1.8,6.7-3.1,10.7l5.4,1.7
		c1.5-4.7,2.6-8.8,3.5-12.4h32.5c-0.8,3.1-1.8,6.7-3.1,10.7l5.4,1.7c1.5-4.7,2.6-8.8,3.5-12.4h31.9c-0.8,3.1-1.8,6.7-3.1,10.7
		l5.4,1.7c1.5-4.7,2.6-8.8,3.5-12.4h12.4l9.1,62.8l8.4-1.2L190.8,21h-18.2c0.8-6.8-0.2-11.4-2.8-15.2c-3.1-4.6-7.9-6.7-12.7-5.4
		c-5.6,1.5-9.4,7.1-9.7,14.2c0,0.4,0,0.8,0,1.1V17h5.7v-1.2c0-0.3,0-0.6,0-0.9c0.3-5.3,3-8.3,5.6-9.1c2.3-0.6,4.7,0.5,6.4,3.1
		c1.9,2.8,2.5,6.5,1.8,12.1h-32.1c0.8-6.8-0.2-11.4-2.8-15.2c-3.1-4.6-7.9-6.7-12.7-5.4c-5.6,1.5-9.4,7.1-9.7,14.2
		c0,0.4,0,0.8,0,1.1V17h5.7v-1.2c0-0.3,0-0.6,0-0.9c0.3-5.3,3-8.3,5.6-9.1c2.3-0.7,4.7,0.5,6.4,3.1c1.9,2.8,2.5,6.5,1.8,12.1H96.5
		c0.8-6.8-0.2-11.4-2.8-15.2C90.5,1.1,85.7-0.9,81,0.4c-5.6,1.5-9.4,7.1-9.7,14.2c0,0.4,0,0.8,0,1.1V17h5.7v-1.2c0-0.3,0-0.6,0-0.9
		c0.3-5.3,3-8.3,5.6-9.1c2.3-0.6,4.7,0.5,6.4,3.1c1.9,2.8,2.5,6.5,1.8,12.1H58.5c0.8-6.8-0.2-11.4-2.8-15.2
		C52.6,1.1,47.8-0.9,43,0.4c-5.6,1.5-9.4,7.1-9.7,14.2c0,0.4,0,0.8,0,1.1V17H39v-1.2c0-0.3,0-0.6,0-0.9c0.3-5.3,3-8.3,5.6-9.1
		c2.3-0.7,4.7,0.5,6.4,3.1c1.9,2.8,2.5,6.5,1.8,12.1h-32l0.1,0.7l-0.3,0L0,167.8h31.8v-8.5h-22L25.4,48.6l19.8,119.1h85.9v-8.5H52.4
		L30.9,29.5z"/>
	<path d="M136.1,81.9l-2.7-26.4l-19.3,18.2l-26-5.6l11.4,24l-13.3,23l26.3-3.4l17.7,19.8l4.9-26.1l24.3-10.8L136.1,81.9z
		 M130.1,101.4l-3.3,17.7l-12.1-13.4L96.8,108l9-15.6l-7.7-16.3l17.7,3.8l13.1-12.4l1.9,18l15.8,8.6L130.1,101.4z"/>
</g>
</svg>
