<?xml version="1.0" encoding="utf-8"?>
<!-- Generator: Adobe Illustrator 24.1.0, SVG Export Plug-In . SVG Version: 6.00 Build 0)  -->
<svg version="1.1" id="Layer_1" xmlns="http://www.w3.org/2000/svg" xmlns:xlink="http://www.w3.org/1999/xlink" x="0px" y="0px"
	 viewBox="0 0 235.2 179" style="enable-background:new 0 0 235.2 179;" xml:space="preserve">
<g id="Layer_2_1_">
	<g id="Layer_3">
		<path d="M118.7,52.6L103,126.4H85.2l6.5-30.1H61.1l-6.4,30.1H36.9l15.7-73.8h17.7l-6.2,29.2h30.6l6.2-29.2H118.7 M127.3,45.6h-8.6
			h-17.7h-5.7l-1.2,5.5L89,74.9H72.8l4.4-20.8l1.8-8.5h-8.7H52.6H47l-1.2,5.5L30.1,125l-1.8,8.5h8.6h17.7h5.7l1.2-5.5l5.3-24.6H83
			l-4.6,21.6l-1.8,8.5h8.7H103h5.7l1.2-5.5l15.7-73.8L127.3,45.6L127.3,45.6z M166.8,52.6c18.1,0,29.5,10.9,29.6,29.5
			c0,25.7-15.9,44.3-38.7,44.3H123l15.6-73.8H166.8 M143.9,112h11.7c13.1,0,22.5-10.9,22.5-27.9c0-10.5-5.8-17.1-15.7-17.1h-8.9
			L143.9,112 M166.8,45.6h-28.2h-5.7l-1.2,5.6L116.2,125l-1.8,8.4h8.6h34.7c26.5,0,45.7-21.6,45.7-51.3
			C203.3,59.9,188.9,45.6,166.8,45.6L166.8,45.6z M159.1,74h3.2c8.7,0,8.7,7.6,8.7,10.1c0,12.7-6.1,20.9-15.5,20.9h-3.1L159.1,74
			L159.1,74z"/>
	</g>
</g>
<path d="M228.2,7v165H7V7H228.2 M235.2,0H0v179h235.2V0L235.2,0z"/>
</svg>
