<?xml version="1.0" encoding="utf-8"?>
<!-- Generator: Adobe Illustrator 24.1.3, SVG Export Plug-In . SVG Version: 6.00 Build 0)  -->
<svg version="1.1" id="LIVE" xmlns="http://www.w3.org/2000/svg" xmlns:xlink="http://www.w3.org/1999/xlink" x="0px" y="0px"
	 viewBox="0 0 202.1 204.5" style="enable-background:new 0 0 202.1 204.5;" xml:space="preserve">
<g>
	<path d="M146.8,41.5H16.3C7.3,41.5,0,48.7,0,57.7v130.5c0,9,7.3,16.3,16.3,16.3h130.5c9,0,16.3-7.3,16.3-16.3V57.7
		C163,48.7,155.7,41.5,146.8,41.5z M16.3,50h130.5c4.3,0,7.7,3.5,7.7,7.7v18.7H8.5V57.7C8.5,53.4,12,50,16.3,50z M146.8,196H16.3
		c-4.3,0-7.7-3.5-7.7-7.7V84.9h146v103.3C154.5,192.5,151,196,146.8,196z"/>
	<path d="M185.9,0H49.7c-9,0-16.3,7.3-16.3,16.3v14.3h8.5V16.3c0-4.3,3.5-7.7,7.7-7.7h136.2c4.3,0,7.7,3.5,7.7,7.7v136.2
		c0,4.3-3.5,7.7-7.7,7.7h-11.6v8.5h11.6c9,0,16.3-7.3,16.3-16.3V16.3C202.1,7.3,194.8,0,185.9,0z"/>
	<rect x="77.2" y="58.5" width="65.4" height="8.5"/>
	<rect x="18.7" y="58.5" width="9.5" height="8.5"/>
	<rect x="35.7" y="58.5" width="9.5" height="8.5"/>
	<rect x="52.4" y="58.5" width="9.5" height="8.5"/>
	<polygon points="29.5,119.4 23.6,119.4 23.6,163.7 50.5,163.7 50.5,158.9 29.5,158.9 	"/>
	<rect x="57.6" y="119.4" width="5.8" height="44.3"/>
	<polygon points="88.8,156 76.2,119.4 69.8,119.4 86.3,163.7 91.4,163.7 107.9,119.4 101.5,119.4 	"/>
	<polygon points="119.7,143.2 138.9,143.2 138.9,138.5 119.7,138.5 119.7,124.2 141.7,124.2 141.7,119.4 113.8,119.4 113.8,163.7 
		142,163.7 142,158.9 119.7,158.9 	"/>
</g>
</svg>
