<?xml version="1.0" encoding="utf-8"?>
<!-- Generator: Adobe Illustrator 24.1.3, SVG Export Plug-In . SVG Version: 6.00 Build 0)  -->
<svg version="1.1" xmlns="http://www.w3.org/2000/svg" xmlns:xlink="http://www.w3.org/1999/xlink" x="0px" y="0px"
	 viewBox="0 0 236.6 217.8" style="enable-background:new 0 0 236.6 217.8;" xml:space="preserve">
<g id="Layer_3">
</g>
<g id="Layer_4">
	<g>
		<path d="M121.1,155h11.7v-8.5h-11.7v0H86v0H8.5V8.5h195.2v33.1h8.5V0H0v155h86v16.6H63.2v8.5H133v-8.5h-11.9V155z M112.6,155v16.4
			H94.5V155H112.6z"/>
		<path d="M220.3,50.2h-64.6c-9,0-16.3,7.3-16.3,16.3v135c0,9,7.3,16.3,16.3,16.3h64.6c9,0,16.3-7.3,16.3-16.3v-135
			C236.6,57.5,229.3,50.2,220.3,50.2z M155.7,58.7h64.6c4.3,0,7.7,3.5,7.7,7.7V71h-80.1v-4.6C147.9,62.2,151.4,58.7,155.7,58.7z
			 M228.1,76.7v103.9h-80.1V76.7H228.1z M220.3,209.3h-64.6c-4.3,0-7.7-3.5-7.7-7.7v-15.3h80.1v15.3
			C228.1,205.8,224.6,209.3,220.3,209.3z"/>
		<rect x="174.8" y="195.4" width="28.5" height="5.7"/>
	</g>
</g>
</svg>
