<?xml version="1.0" encoding="UTF-8" standalone="no"?>
<!DOCTYPE svg  PUBLIC '-//W3C//DTD SVG 1.1//EN'  'http://www.w3.org/Graphics/SVG/1.1/DTD/svg11.dtd'>
<svg version="1.1" xmlns="http://www.w3.org/2000/svg">
<defs>
<font id="OrganicaR-Bold" horiz-adv-x="733">
<font-face bbox="-91 -210 1277 951" descent="-250" font-family="Organica R" ascent="750" underline-thickness="50" cap-height="700" unicode-range="U+000D-FB02" underline-position="-100" stemv="138" font-weight="600" stemh="122" units-per-em="1000" x-height="515" panose-1="2 0 7 3 0 0 0 9 0 4"/>
<missing-glyph d="M99 0v630h630v-630h-630zM414 280l-230 -230h460zM184 580l230 -230l230 230h-460zM449 315l230 -230v460zM379 315l-230 230v-460z" horiz-adv-x="828"/>
<glyph d="M99 0v630h630v-630h-630zM414 280l-230 -230h460zM184 580l230 -230l230 230h-460zM449 315l230 -230v460zM379 315l-230 230v-460z" horiz-adv-x="828" glyph-name=".notdef"/>
<glyph horiz-adv-x="0" glyph-name=".null"/>
<glyph horiz-adv-x="0" glyph-name=".null"/>
<glyph unicode="" horiz-adv-x="0" glyph-name="CR"/>
<glyph unicode=" " horiz-adv-x="300" glyph-name="space"/>
<glyph unicode=" " horiz-adv-x="300" glyph-name="nbspace"/>
<glyph unicode="A" d="M5 0l285 700h153l285 -700h-148l-62 155h-312l-61 -155h-140zM362 545l-107 -268h214z" glyph-name="A"/>
<glyph unicode="B" d="M55 0v700h270c128 0 213 -83 213 -194c0 -63 -27 -111 -71 -145c70 -28 111 -90 111 -167c0 -110 -85 -194 -201 -194h-322zM189 118h159c55 0 91 38 91 88s-36 87 -91 87h-159v-175zM189 407h130c54 0 92 38 92 88s-38 87 -92 87h-130v-175z" horiz-adv-x="623" glyph-name="B"/>
<glyph unicode="C" d="M35 350c0 203 160 360 368 360c162 0 278 -98 326 -203l-127 -49c-34 71 -107 126 -199 126c-128 0 -226 -102 -226 -234s98 -233 226 -233c92 0 165 54 199 125l127 -49c-48 -105 -164 -203 -326 -203c-208 0 -368 157 -368 360z" horiz-adv-x="764" glyph-name="C"/>
<glyph unicode="D" d="M55 0v700h275c206 0 358 -152 358 -350s-152 -350 -358 -350h-275zM193 122h126c134 0 227 97 227 228c0 132 -93 228 -227 228h-126v-456z" horiz-adv-x="723" glyph-name="D"/>
<glyph unicode="E" d="M55 0v700h463v-122h-325v-167h315v-122h-315v-167h325v-122h-463z" horiz-adv-x="560" glyph-name="E"/>
<glyph unicode="F" d="M55 0v700h443v-122h-305v-182h295v-122h-295v-274h-138z" horiz-adv-x="520" glyph-name="F"/>
<glyph unicode="G" d="M35 350c0 203 160 360 368 360c162 0 278 -98 326 -203l-127 -49c-34 71 -107 126 -199 126c-128 0 -226 -102 -226 -234s98 -233 226 -233c111 0 188 73 204 153h-262v122h416c23 -244 -158 -402 -358 -402c-208 0 -368 157 -368 360z" horiz-adv-x="805" glyph-name="G"/>
<glyph unicode="H" d="M55 0v700h138v-289h347v289h138v-700h-138v289h-347v-289h-138z" glyph-name="H"/>
<glyph unicode="I" d="M55 0v700h138v-700h-138z" horiz-adv-x="248" glyph-name="I"/>
<glyph unicode="J" d="M10 205l138 20c3 -79 52 -108 106 -108c64 0 106 46 106 114v469h137v-469c0 -151 -111 -241 -247 -241c-128 0 -229 77 -240 215z" horiz-adv-x="542" glyph-name="J"/>
<glyph unicode="K" d="M55 0v700h138v-303l268 303h172l-254 -285l289 -415h-166l-216 308l-93 -104v-204h-138z" horiz-adv-x="670" glyph-name="K"/>
<glyph unicode="L" d="M55 0v700h138v-578h325v-122h-463z" horiz-adv-x="538" glyph-name="L"/>
<glyph unicode="M" d="M55 0v700h187l208 -524l208 524h180v-700h-134v479l-196 -479h-124l-195 478v-478h-134z" horiz-adv-x="893" glyph-name="M"/>
<glyph unicode="N" d="M55 0v700h134l351 -469v469h138v-700h-134l-351 469v-469h-138z" glyph-name="N"/>
<glyph unicode="O" d="M35 350c0 203 160 360 368 360c207 0 367 -157 367 -360s-160 -360 -367 -360c-208 0 -368 157 -368 360zM177 350c0 -132 98 -233 226 -233c127 0 225 101 225 233s-98 234 -225 234c-128 0 -226 -102 -226 -234z" horiz-adv-x="805" glyph-name="O"/>
<glyph unicode="P" d="M55 0v700h293c154 0 255 -99 255 -232s-101 -229 -255 -229h-155v-239h-138zM193 361h155c68 0 113 47 113 108c0 63 -45 109 -113 109h-155v-217z" horiz-adv-x="615" glyph-name="P"/>
<glyph unicode="Q" d="M655 -79l-89 105c-49 -23 -104 -36 -163 -36c-208 0 -368 157 -368 360s160 360 368 360c207 0 367 -157 367 -360c0 -98 -37 -184 -98 -248l82 -97zM177 350c0 -132 98 -233 226 -233c27 0 52 4 76 13l-85 102l99 83l90 -107c28 39 45 87 45 142c0 132 -98 234 -225 234 c-128 0 -226 -102 -226 -234z" horiz-adv-x="805" glyph-name="Q"/>
<glyph unicode="R" d="M449 0l-170 255h-86v-255h-138v700h294c147 0 244 -95 244 -222c0 -100 -61 -181 -158 -211l178 -267h-164zM193 381h156c61 0 102 43 102 98c0 57 -41 99 -102 99h-156v-197z" horiz-adv-x="638" glyph-name="R"/>
<glyph unicode="S" d="M45 182l139 27c12 -57 51 -92 125 -92c66 0 109 30 109 77c0 147 -356 57 -356 311c0 118 105 205 243 205c140 0 231 -78 248 -191l-139 -28c-12 59 -48 93 -114 93c-59 0 -96 -30 -96 -76c0 -135 356 -45 356 -310c0 -119 -109 -208 -255 -208s-245 80 -260 192z" horiz-adv-x="605" glyph-name="S"/>
<glyph unicode="T" d="M226 0v578h-216v122h570v-122h-216v-578h-138z" horiz-adv-x="590" glyph-name="T"/>
<glyph unicode="U" d="M45 700h138v-426c0 -91 65 -157 163 -157c100 0 164 66 164 157v426h138v-426c0 -166 -126 -284 -302 -284c-175 0 -301 118 -301 284v426z" horiz-adv-x="693" glyph-name="U"/>
<glyph unicode="V" d="M275 0l-270 700h147l204 -541l202 541h140l-270 -700h-153z" horiz-adv-x="703" glyph-name="V"/>
<glyph unicode="W" d="M237 0l-209 700h150l147 -522l143 522h155l143 -522l147 522h143l-210 -700h-161l-143 473l-144 -473h-161z" horiz-adv-x="1084" glyph-name="W"/>
<glyph unicode="X" d="M5 0l250 348l-250 352h167l166 -239l168 239h163l-250 -348l250 -352h-167l-167 240l-167 -240h-163z" horiz-adv-x="674" glyph-name="X"/>
<glyph unicode="Y" d="M261 0v227l-266 473h162l177 -335l176 335h154l-266 -473v-227h-137z" horiz-adv-x="659" glyph-name="Y"/>
<glyph unicode="Z" d="M50 0v122l339 456h-339v122h508v-122l-339 -456h339v-122h-508z" horiz-adv-x="608" glyph-name="Z"/>
<glyph unicode="Æ" d="M-15 0l420 700h543v-122h-325v-167h315v-122h-315v-167h325v-122h-463v155h-255l-94 -155h-151zM301 277h184v302z" horiz-adv-x="990" glyph-name="AE"/>
<glyph unicode="Ŋ" d="M55 0v700h134l351 -469v469h138v-708c0 -138 -54 -202 -215 -192v122c55 -6 82 16 82 60v16l-352 471v-469h-138z" glyph-name="Eng"/>
<glyph unicode="Ð" d="M0 300v100h55v300h275c206 0 358 -152 358 -350s-152 -350 -358 -350h-275v300h-55zM193 122h126c134 0 227 97 227 228c0 132 -93 228 -227 228h-126v-178h132v-100h-132v-178z" horiz-adv-x="723" glyph-name="Eth"/>
<glyph unicode="Ĳ" d="M55 0v700h138v-700h-138zM257 205l138 20c3 -79 52 -108 106 -108c64 0 106 46 106 114v469h137v-469c0 -151 -111 -241 -247 -241c-128 0 -229 77 -240 215z" horiz-adv-x="790" glyph-name="IJ"/>
<glyph unicode="Œ" d="M35 350c0 205 168 360 360 360c59 0 118 -16 171 -46v36h462v-122h-325v-167h315v-122h-315v-167h325v-122h-462v36c-53 -30 -112 -46 -171 -46c-192 0 -360 155 -360 360zM177 350c0 -144 111 -233 233 -233c58 0 112 18 156 55v357c-44 36 -98 55 -156 55 c-122 0 -233 -90 -233 -234z" horiz-adv-x="1071" glyph-name="OE"/>
<glyph unicode="Ø" d="M94 16l51 73c-68 65 -110 157 -110 261c0 203 160 360 368 360c55 0 108 -12 154 -32l54 76l100 -70l-52 -74c69 -65 111 -156 111 -260c0 -203 -160 -360 -367 -360c-56 0 -109 11 -156 32l-53 -76zM177 350c0 -57 18 -107 48 -147l257 367c-25 9 -51 14 -79 14 c-128 0 -226 -102 -226 -234zM628 350c0 56 -18 107 -48 147l-257 -366c25 -9 52 -14 80 -14c127 0 225 101 225 233z" horiz-adv-x="805" glyph-name="Oslash"/>
<glyph unicode="Þ" d="M55 0v700h138v-118h155c154 0 255 -99 255 -232s-101 -229 -255 -229h-155v-121h-138zM193 243h155c68 0 113 47 113 109s-45 108 -113 108h-155v-217z" horiz-adv-x="615" glyph-name="Thorn"/>
<glyph unicode="Á" d="M5 0l285 700h153l285 -700h-148l-62 155h-312l-61 -155h-140zM362 545l-107 -268h214zM254 746l145 154h159l-160 -154h-144z" glyph-name="Aacute"/>
<glyph unicode="Ă" d="M5 0l285 700h153l285 -700h-148l-62 155h-312l-61 -155h-140zM179 900h110c6 -38 34 -62 77 -62s71 24 77 62h110c-10 -101 -89 -159 -187 -159s-177 58 -187 159zM362 545l-107 -268h214z" glyph-name="Abreve"/>
<glyph unicode="Â" d="M5 0l285 700h153l285 -700h-148l-62 155h-312l-61 -155h-140zM151 746l147 154h136l147 -154h-144l-71 72l-71 -72h-144zM362 545l-107 -268h214z" glyph-name="Acircumflex"/>
<glyph unicode="Ä" d="M5 0l285 700h153l285 -700h-148l-62 155h-312l-61 -155h-140zM362 545l-107 -268h214zM185 749v152h123v-152h-123zM425 749v152h123v-152h-123z" glyph-name="Adieresis"/>
<glyph unicode="À" d="M5 0l285 700h153l285 -700h-148l-62 155h-312l-61 -155h-140zM362 545l-107 -268h214zM334 746l-160 154h159l145 -154h-144z" glyph-name="Agrave"/>
<glyph unicode="Ā" d="M5 0l285 700h153l285 -700h-148l-62 155h-312l-61 -155h-140zM203 775v100h325v-100h-325zM362 545l-107 -268h214z" glyph-name="Amacron"/>
<glyph unicode="Ą" d="M5 0l285 700h153l285 -700h-39c-19 -17 -30 -41 -30 -62s13 -39 43 -39c11 0 21 2 35 6l11 -100c-25 -10 -54 -15 -83 -15c-82 0 -130 41 -130 102c0 36 15 72 44 109l-61 154h-312l-61 -155h-140zM362 545l-107 -268h214z" glyph-name="Aogonek"/>
<glyph unicode="Å" d="M5 0l285 700h153l285 -700h-148l-62 155h-312l-61 -155h-140zM236 834c0 67 56 117 131 117c74 0 130 -50 130 -117c0 -68 -56 -118 -130 -118c-75 0 -131 50 -131 118zM362 545l-107 -268h214zM321 834c0 -26 20 -45 46 -45c25 0 45 19 45 45s-20 45 -45 45 c-26 0 -46 -19 -46 -45z" glyph-name="Aring"/>
<glyph unicode="Ã" d="M5 0l285 700h153l285 -700h-148l-62 155h-312l-61 -155h-140zM240 758l-83 40c16 60 69 104 133 104c81 0 106 -52 152 -52c23 0 40 15 50 42l83 -40c-16 -60 -69 -104 -133 -104c-82 0 -107 53 -152 53c-23 0 -41 -15 -50 -43zM362 545l-107 -268h214z" glyph-name="Atilde"/>
<glyph unicode="Ć" d="M35 350c0 203 160 360 368 360c162 0 278 -98 326 -203l-127 -49c-34 71 -107 126 -199 126c-128 0 -226 -102 -226 -234s98 -233 226 -233c92 0 165 54 199 125l127 -49c-48 -105 -164 -203 -326 -203c-208 0 -368 157 -368 360zM290 746l145 154h159l-160 -154h-144z " horiz-adv-x="764" glyph-name="Cacute"/>
<glyph unicode="Č" d="M35 350c0 203 160 360 368 360c162 0 278 -98 326 -203l-127 -49c-34 71 -107 126 -199 126c-128 0 -226 -102 -226 -234s98 -233 226 -233c92 0 165 54 199 125l127 -49c-48 -105 -164 -203 -326 -203c-208 0 -368 157 -368 360zM334 746l-147 154h144l71 -71l71 71h144 l-147 -154h-136z" horiz-adv-x="764" glyph-name="Ccaron"/>
<glyph unicode="Ç" d="M293 -201l15 104c10 -3 19 -4 28 -4c33 0 52 17 52 42c0 16 -9 34 -27 51c-187 19 -326 168 -326 358c0 203 160 360 368 360c162 0 278 -98 326 -203l-127 -49c-34 71 -107 126 -199 126c-128 0 -226 -102 -226 -234s98 -233 226 -233c92 0 165 54 199 125l127 -49 c-41 -88 -129 -171 -252 -195c23 -31 35 -62 35 -91c0 -66 -57 -117 -147 -117c-22 0 -46 2 -72 9z" horiz-adv-x="764" glyph-name="Ccedilla"/>
<glyph unicode="Ď" d="M55 0v700h275c206 0 358 -152 358 -350s-152 -350 -358 -350h-275zM193 122h126c134 0 227 97 227 228c0 132 -93 228 -227 228h-126v-456zM248 746l-147 154h144l71 -71l71 71h144l-147 -154h-136z" horiz-adv-x="723" glyph-name="Dcaron"/>
<glyph unicode="Đ" d="M0 300v100h55v300h275c206 0 358 -152 358 -350s-152 -350 -358 -350h-275v300h-55zM193 122h126c134 0 227 97 227 228c0 132 -93 228 -227 228h-126v-178h132v-100h-132v-178z" horiz-adv-x="723" glyph-name="Dcroat"/>
<glyph unicode="É" d="M55 0v700h463v-122h-325v-167h315v-122h-315v-167h325v-122h-463zM168 746l145 154h159l-160 -154h-144z" horiz-adv-x="560" glyph-name="Eacute"/>
<glyph unicode="Ě" d="M55 0v700h463v-122h-325v-167h315v-122h-315v-167h325v-122h-463zM212 746l-147 154h144l71 -71l71 71h144l-147 -154h-136z" horiz-adv-x="560" glyph-name="Ecaron"/>
<glyph unicode="Ê" d="M65 746l147 154h136l147 -154h-144l-71 72l-71 -72h-144zM55 0v700h463v-122h-325v-167h315v-122h-315v-167h325v-122h-463z" horiz-adv-x="560" glyph-name="Ecircumflex"/>
<glyph unicode="Ë" d="M55 0v700h463v-122h-325v-167h315v-122h-315v-167h325v-122h-463zM98 749v152h123v-152h-123zM338 749v152h123v-152h-123z" horiz-adv-x="560" glyph-name="Edieresis"/>
<glyph unicode="Ė" d="M215 749v152h130v-152h-130zM55 0v700h463v-122h-325v-167h315v-122h-315v-167h325v-122h-463z" horiz-adv-x="560" glyph-name="Edotaccent"/>
<glyph unicode="È" d="M248 746l-160 154h159l145 -154h-144zM55 0v700h463v-122h-325v-167h315v-122h-315v-167h325v-122h-463z" horiz-adv-x="560" glyph-name="Egrave"/>
<glyph unicode="Ē" d="M55 0v700h463v-122h-325v-167h315v-122h-315v-167h325v-122h-463zM117 775v100h325v-100h-325z" horiz-adv-x="560" glyph-name="Emacron"/>
<glyph unicode="Ę" d="M55 0v700h463v-122h-325v-167h315v-122h-315v-167h325v-122h-1c-19 -17 -30 -41 -30 -62s13 -39 43 -39c11 0 21 2 35 6l11 -100c-25 -10 -54 -15 -83 -15c-82 0 -130 41 -130 102c0 35 15 71 43 108h-351z" horiz-adv-x="560" glyph-name="Eogonek"/>
<glyph unicode="Ğ" d="M35 350c0 203 160 360 368 360c162 0 278 -98 326 -203l-127 -49c-34 71 -107 126 -199 126c-128 0 -226 -102 -226 -234s98 -233 226 -233c111 0 188 73 204 153h-262v122h416c23 -244 -158 -402 -358 -402c-208 0 -368 157 -368 360zM216 900h110c6 -38 34 -62 77 -62 s71 24 77 62h110c-10 -101 -89 -159 -187 -159s-177 58 -187 159z" horiz-adv-x="805" glyph-name="Gbreve"/>
<glyph unicode="Ģ" d="M325 -210l31 167h124l-49 -167h-106zM35 350c0 203 160 360 368 360c162 0 278 -98 326 -203l-127 -49c-34 71 -107 126 -199 126c-128 0 -226 -102 -226 -234s98 -233 226 -233c111 0 188 73 204 153h-262v122h416c23 -244 -158 -402 -358 -402 c-208 0 -368 157 -368 360z" horiz-adv-x="805" glyph-name="Gcommaaccent"/>
<glyph unicode="Í" d="M55 0v700h138v-700h-138zM35 746l145 154h159l-160 -154h-144z" horiz-adv-x="248" glyph-name="Iacute"/>
<glyph unicode="Î" d="M55 0v700h138v-700h-138zM-91 746l147 154h136l147 -154h-144l-71 72l-71 -72h-144z" horiz-adv-x="248" glyph-name="Icircumflex"/>
<glyph unicode="Ï" d="M-38 749v152h123v-152h-123zM163 749v152h122v-152h-122zM55 0v700h138v-700h-138z" horiz-adv-x="248" glyph-name="Idieresis"/>
<glyph unicode="İ" d="M55 0v700h138v-700h-138zM58 749v152h130v-152h-130z" horiz-adv-x="248" glyph-name="Idotaccent"/>
<glyph unicode="Ì" d="M55 0v700h138v-700h-138zM75 746l-160 154h159l145 -154h-144z" horiz-adv-x="248" glyph-name="Igrave"/>
<glyph unicode="Ī" d="M-14 775v100h275v-100h-275zM55 0v700h138v-700h-138z" horiz-adv-x="248" glyph-name="Imacron"/>
<glyph unicode="Į" d="M55 0v700h138v-700h-10c-19 -17 -30 -41 -30 -62s13 -39 43 -39c11 0 21 2 35 6l11 -100c-25 -10 -54 -15 -83 -15c-82 0 -130 41 -130 102c0 35 15 71 43 108h-17z" horiz-adv-x="248" glyph-name="Iogonek"/>
<glyph unicode="Ķ" d="M257 -210l31 167h124l-49 -167h-106zM55 0v700h138v-303l268 303h172l-254 -285l289 -415h-166l-216 308l-93 -104v-204h-138z" horiz-adv-x="670" glyph-name="Kcommaaccent"/>
<glyph unicode="Ĺ" d="M35 746l145 154h159l-160 -154h-144zM55 0v700h138v-578h325v-122h-463z" horiz-adv-x="538" glyph-name="Lacute"/>
<glyph unicode="Ľ" d="M277 575l31 193h117l-50 -193h-98zM55 0v700h138v-578h325v-122h-463z" horiz-adv-x="538" glyph-name="Lcaron"/>
<glyph unicode="Ļ" d="M191 -210l31 167h124l-49 -167h-106zM55 0v700h138v-578h325v-122h-463z" horiz-adv-x="538" glyph-name="Lcommaaccent"/>
<glyph unicode="Ł" d="M-20 244v106l75 21v329h138v-290l233 67v-106l-233 -66v-183h325v-122h-463v265z" horiz-adv-x="538" glyph-name="Lslash"/>
<glyph unicode="Ń" d="M254 746l145 154h159l-160 -154h-144zM55 0v700h134l351 -469v469h138v-700h-134l-351 469v-469h-138z" glyph-name="Nacute"/>
<glyph unicode="Ň" d="M55 0v700h134l351 -469v469h138v-700h-134l-351 469v-469h-138zM298 746l-147 154h144l71 -71l71 71h144l-147 -154h-136z" glyph-name="Ncaron"/>
<glyph unicode="Ņ" d="M288 -210l31 167h124l-49 -167h-106zM55 0v700h134l351 -469v469h138v-700h-134l-351 469v-469h-138z" glyph-name="Ncommaaccent"/>
<glyph unicode="Ñ" d="M240 758l-83 40c16 60 69 104 133 104c81 0 106 -52 152 -52c23 0 40 15 50 42l83 -40c-16 -60 -69 -104 -133 -104c-82 0 -107 53 -152 53c-23 0 -41 -15 -50 -43zM55 0v700h134l351 -469v469h138v-700h-134l-351 469v-469h-138z" glyph-name="Ntilde"/>
<glyph unicode="Ó" d="M290 746l145 154h159l-160 -154h-144zM35 350c0 203 160 360 368 360c207 0 367 -157 367 -360s-160 -360 -367 -360c-208 0 -368 157 -368 360zM177 350c0 -132 98 -233 226 -233c127 0 225 101 225 233s-98 234 -225 234c-128 0 -226 -102 -226 -234z" horiz-adv-x="805" glyph-name="Oacute"/>
<glyph unicode="Ŏ" d="M35 350c0 203 160 360 368 360c207 0 367 -157 367 -360s-160 -360 -367 -360c-208 0 -368 157 -368 360zM177 350c0 -132 98 -233 226 -233c127 0 225 101 225 233s-98 234 -225 234c-128 0 -226 -102 -226 -234zM216 900h110c6 -38 34 -62 77 -62s71 24 77 62h110 c-10 -101 -89 -159 -187 -159s-177 58 -187 159z" horiz-adv-x="805" glyph-name="Obreve"/>
<glyph unicode="Ô" d="M187 746l147 154h136l147 -154h-144l-71 72l-71 -72h-144zM35 350c0 203 160 360 368 360c207 0 367 -157 367 -360s-160 -360 -367 -360c-208 0 -368 157 -368 360zM177 350c0 -132 98 -233 226 -233c127 0 225 101 225 233s-98 234 -225 234 c-128 0 -226 -102 -226 -234z" horiz-adv-x="805" glyph-name="Ocircumflex"/>
<glyph unicode="Ö" d="M35 350c0 203 160 360 368 360c207 0 367 -157 367 -360s-160 -360 -367 -360c-208 0 -368 157 -368 360zM177 350c0 -132 98 -233 226 -233c127 0 225 101 225 233s-98 234 -225 234c-128 0 -226 -102 -226 -234zM221 749v152h123v-152h-123zM461 749v152h123v-152h-123 z" horiz-adv-x="805" glyph-name="Odieresis"/>
<glyph unicode="Ò" d="M370 746l-160 154h159l145 -154h-144zM35 350c0 203 160 360 368 360c207 0 367 -157 367 -360s-160 -360 -367 -360c-208 0 -368 157 -368 360zM177 350c0 -132 98 -233 226 -233c127 0 225 101 225 233s-98 234 -225 234c-128 0 -226 -102 -226 -234z" horiz-adv-x="805" glyph-name="Ograve"/>
<glyph unicode="Ő" d="M192 746l145 154h144l-160 -154h-129zM405 746l144 154h144l-159 -154h-129zM35 350c0 203 160 360 368 360c207 0 367 -157 367 -360s-160 -360 -367 -360c-208 0 -368 157 -368 360zM177 350c0 -132 98 -233 226 -233c127 0 225 101 225 233s-98 234 -225 234 c-128 0 -226 -102 -226 -234z" horiz-adv-x="805" glyph-name="Ohungarumlaut"/>
<glyph unicode="Ō" d="M35 350c0 203 160 360 368 360c207 0 367 -157 367 -360s-160 -360 -367 -360c-208 0 -368 157 -368 360zM177 350c0 -132 98 -233 226 -233c127 0 225 101 225 233s-98 234 -225 234c-128 0 -226 -102 -226 -234zM240 775v100h325v-100h-325z" horiz-adv-x="805" glyph-name="Omacron"/>
<glyph unicode="Õ" d="M35 350c0 203 160 360 368 360c207 0 367 -157 367 -360s-160 -360 -367 -360c-208 0 -368 157 -368 360zM177 350c0 -132 98 -233 226 -233c127 0 225 101 225 233s-98 234 -225 234c-128 0 -226 -102 -226 -234zM276 758l-83 40c16 60 69 104 133 104 c81 0 106 -52 152 -52c23 0 40 15 50 42l83 -40c-16 -60 -69 -104 -133 -104c-82 0 -107 53 -152 53c-23 0 -41 -15 -50 -43z" horiz-adv-x="805" glyph-name="Otilde"/>
<glyph unicode="Ŕ" d="M449 0l-170 255h-86v-255h-138v700h294c147 0 244 -95 244 -222c0 -100 -61 -181 -158 -211l178 -267h-164zM193 381h156c61 0 102 43 102 98c0 57 -41 99 -102 99h-156v-197zM167 746l145 154h159l-160 -154h-144z" horiz-adv-x="638" glyph-name="Racute"/>
<glyph unicode="Ř" d="M449 0l-170 255h-86v-255h-138v700h294c147 0 244 -95 244 -222c0 -100 -61 -181 -158 -211l178 -267h-164zM193 381h156c61 0 102 43 102 98c0 57 -41 99 -102 99h-156v-197zM221 746l-147 154h144l71 -71l71 71h144l-147 -154h-136z" horiz-adv-x="638" glyph-name="Rcaron"/>
<glyph unicode="Ŗ" d="M449 0l-170 255h-86v-255h-138v700h294c147 0 244 -95 244 -222c0 -100 -61 -181 -158 -211l178 -267h-164zM193 381h156c61 0 102 43 102 98c0 57 -41 99 -102 99h-156v-197zM236 -210l31 167h124l-49 -167h-106z" horiz-adv-x="638" glyph-name="Rcommaaccent"/>
<glyph unicode="Ś" d="M45 182l139 27c12 -57 51 -92 125 -92c66 0 109 30 109 77c0 147 -356 57 -356 311c0 118 105 205 243 205c140 0 231 -78 248 -191l-139 -28c-12 59 -48 93 -114 93c-59 0 -96 -30 -96 -76c0 -135 356 -45 356 -310c0 -119 -109 -208 -255 -208s-245 80 -260 192z M193 746l145 154h159l-160 -154h-144z" horiz-adv-x="605" glyph-name="Sacute"/>
<glyph unicode="Š" d="M45 182l139 27c12 -57 51 -92 125 -92c66 0 109 30 109 77c0 147 -356 57 -356 311c0 118 105 205 243 205c140 0 231 -78 248 -191l-139 -28c-12 59 -48 93 -114 93c-59 0 -96 -30 -96 -76c0 -135 356 -45 356 -310c0 -119 -109 -208 -255 -208s-245 80 -260 192z M236 746l-147 154h144l71 -71l71 71h144l-147 -154h-136z" horiz-adv-x="605" glyph-name="Scaron"/>
<glyph unicode="Ş" d="M197 -201l15 104c10 -3 19 -4 28 -4c33 0 52 17 52 42c0 16 -9 35 -27 52c-124 13 -207 87 -220 189l139 27c12 -57 51 -92 125 -92c66 0 109 30 109 77c0 147 -356 57 -356 311c0 118 105 205 243 205c140 0 231 -78 248 -191l-139 -28c-12 59 -48 93 -114 93 c-59 0 -96 -30 -96 -76c0 -135 356 -45 356 -310c0 -98 -73 -175 -180 -199c24 -31 36 -62 36 -92c0 -66 -57 -117 -147 -117c-22 0 -46 2 -72 9z" horiz-adv-x="605" glyph-name="Scedilla"/>
<glyph unicode="Ș" d="M227 -210l31 167h124l-49 -167h-106zM45 182l139 27c12 -57 51 -92 125 -92c66 0 109 30 109 77c0 147 -356 57 -356 311c0 118 105 205 243 205c140 0 231 -78 248 -191l-139 -28c-12 59 -48 93 -114 93c-59 0 -96 -30 -96 -76c0 -135 356 -45 356 -310 c0 -119 -109 -208 -255 -208s-245 80 -260 192z" horiz-adv-x="605" glyph-name="uni0218"/>
<glyph unicode="Ť" d="M226 0v578h-216v122h570v-122h-216v-578h-138zM227 746l-147 154h144l71 -71l71 71h144l-147 -154h-136z" horiz-adv-x="590" glyph-name="Tcaron"/>
<glyph unicode="Ț" d="M217 -210l31 167h124l-49 -167h-106zM226 0v578h-216v122h570v-122h-216v-578h-138z" horiz-adv-x="590" glyph-name="uni021A"/>
<glyph unicode="Ú" d="M45 700h138v-426c0 -91 65 -157 163 -157c100 0 164 66 164 157v426h138v-426c0 -166 -126 -284 -302 -284c-175 0 -301 118 -301 284v426zM234 746l145 154h159l-160 -154h-144z" horiz-adv-x="693" glyph-name="Uacute"/>
<glyph unicode="Ŭ" d="M45 700h138v-426c0 -91 65 -157 163 -157c100 0 164 66 164 157v426h138v-426c0 -166 -126 -284 -302 -284c-175 0 -301 118 -301 284v426zM159 900h110c6 -38 34 -62 77 -62s71 24 77 62h110c-10 -101 -89 -159 -187 -159s-177 58 -187 159z" horiz-adv-x="693" glyph-name="Ubreve"/>
<glyph unicode="Û" d="M131 746l147 154h136l147 -154h-144l-71 72l-71 -72h-144zM45 700h138v-426c0 -91 65 -157 163 -157c100 0 164 66 164 157v426h138v-426c0 -166 -126 -284 -302 -284c-175 0 -301 118 -301 284v426z" horiz-adv-x="693" glyph-name="Ucircumflex"/>
<glyph unicode="Ü" d="M45 700h138v-426c0 -91 65 -157 163 -157c100 0 164 66 164 157v426h138v-426c0 -166 -126 -284 -302 -284c-175 0 -301 118 -301 284v426zM165 749v152h123v-152h-123zM405 749v152h123v-152h-123z" horiz-adv-x="693" glyph-name="Udieresis"/>
<glyph unicode="Ù" d="M314 746l-160 154h159l145 -154h-144zM45 700h138v-426c0 -91 65 -157 163 -157c100 0 164 66 164 157v426h138v-426c0 -166 -126 -284 -302 -284c-175 0 -301 118 -301 284v426z" horiz-adv-x="693" glyph-name="Ugrave"/>
<glyph unicode="Ű" d="M136 746l145 154h144l-160 -154h-129zM349 746l144 154h144l-159 -154h-129zM45 700h138v-426c0 -91 65 -157 163 -157c100 0 164 66 164 157v426h138v-426c0 -166 -126 -284 -302 -284c-175 0 -301 118 -301 284v426z" horiz-adv-x="693" glyph-name="Uhungarumlaut"/>
<glyph unicode="Ū" d="M45 700h138v-426c0 -91 65 -157 163 -157c100 0 164 66 164 157v426h138v-426c0 -166 -126 -284 -302 -284c-175 0 -301 118 -301 284v426zM183 775v100h325v-100h-325z" horiz-adv-x="693" glyph-name="Umacron"/>
<glyph unicode="Ų" d="M45 700h138v-426c0 -91 65 -157 163 -157c100 0 164 66 164 157v426h138v-426c0 -142 -92 -249 -229 -277c-17 -16 -26 -39 -26 -59c0 -21 13 -39 43 -39c11 0 21 2 35 6l11 -100c-25 -10 -54 -15 -83 -15c-82 0 -130 41 -130 102c0 33 13 66 37 100 c-154 16 -261 129 -261 282v426z" horiz-adv-x="693" glyph-name="Uogonek"/>
<glyph unicode="Ů" d="M216 834c0 67 56 117 131 117c74 0 130 -50 130 -117c0 -68 -56 -118 -130 -118c-75 0 -131 50 -131 118zM301 834c0 -26 20 -45 46 -45c25 0 45 19 45 45s-20 45 -45 45c-26 0 -46 -19 -46 -45zM45 700h138v-426c0 -91 65 -157 163 -157c100 0 164 66 164 157v426h138 v-426c0 -166 -126 -284 -302 -284c-175 0 -301 118 -301 284v426z" horiz-adv-x="693" glyph-name="Uring"/>
<glyph unicode="Ũ" d="M45 700h138v-426c0 -91 65 -157 163 -157c100 0 164 66 164 157v426h138v-426c0 -166 -126 -284 -302 -284c-175 0 -301 118 -301 284v426zM220 758l-83 40c16 60 69 104 133 104c81 0 106 -52 152 -52c23 0 40 15 50 42l83 -40c-16 -60 -69 -104 -133 -104 c-82 0 -107 53 -152 53c-23 0 -41 -15 -50 -43z" horiz-adv-x="693" glyph-name="Utilde"/>
<glyph unicode="Ý" d="M261 0v227l-266 473h162l177 -335l176 335h154l-266 -473v-227h-137zM220 746l145 154h159l-160 -154h-144z" horiz-adv-x="664" glyph-name="Yacute"/>
<glyph unicode="Ÿ" d="M261 0v227l-266 473h162l177 -335l176 335h154l-266 -473v-227h-137zM148 749v152h123v-152h-123zM388 749v152h123v-152h-123z" horiz-adv-x="659" glyph-name="Ydieresis"/>
<glyph unicode="Ź" d="M50 0v122l339 456h-339v122h508v-122l-339 -456h339v-122h-508zM192 746l145 154h159l-160 -154h-144z" horiz-adv-x="608" glyph-name="Zacute"/>
<glyph unicode="Ž" d="M50 0v122l339 456h-339v122h508v-122l-339 -456h339v-122h-508zM236 746l-147 154h144l71 -71l71 71h144l-147 -154h-136z" horiz-adv-x="608" glyph-name="Zcaron"/>
<glyph unicode="Ż" d="M238 749v152h130v-152h-130zM50 0v122l339 456h-339v122h508v-122l-339 -456h339v-122h-508z" horiz-adv-x="608" glyph-name="Zdotaccent"/>
<glyph unicode="a" d="M451 0v64c-41 -46 -98 -74 -167 -74c-141 0 -249 116 -249 268c0 151 108 267 249 267c69 0 126 -28 167 -75v65h130v-515h-130zM170 258c0 -85 60 -149 140 -149s141 64 141 149c0 84 -61 148 -141 148s-140 -64 -140 -148z" horiz-adv-x="636" glyph-name="a"/>
<glyph unicode="b" d="M55 0v740h130v-290c40 47 98 75 167 75c141 0 249 -116 249 -267c0 -152 -108 -268 -249 -268c-69 0 -127 28 -167 74v-64h-130zM185 258c0 -85 61 -149 141 -149s140 64 140 149c0 84 -60 148 -140 148s-141 -64 -141 -148z" horiz-adv-x="636" glyph-name="b"/>
<glyph unicode="c" d="M35 258c0 151 119 267 275 267c110 0 193 -58 237 -141l-110 -58c-25 49 -70 80 -127 80c-80 0 -140 -64 -140 -148c0 -85 60 -149 140 -149c57 0 102 32 127 80l110 -58c-44 -83 -127 -141 -237 -141c-156 0 -275 116 -275 268z" horiz-adv-x="582" glyph-name="c"/>
<glyph unicode="d" d="M451 0v64c-41 -46 -98 -74 -167 -74c-141 0 -249 116 -249 268c0 151 108 267 249 267c69 0 126 -28 167 -75v290h130v-740h-130zM170 258c0 -85 60 -149 140 -149s141 64 141 149c0 84 -61 148 -141 148s-140 -64 -140 -148z" horiz-adv-x="636" glyph-name="d"/>
<glyph unicode="e" d="M35 258c0 151 117 267 270 267c171 0 292 -142 266 -313h-401c15 -60 63 -110 144 -110c57 0 106 28 132 75l107 -48c-45 -81 -131 -139 -243 -139c-156 0 -275 116 -275 268zM172 311h267c-17 60 -67 103 -134 103s-117 -45 -133 -103z" horiz-adv-x="610" glyph-name="e"/>
<glyph unicode="f" d="M113 0v401h-98v114h98v26c0 142 74 209 177 209c44 0 93 -11 143 -35l-41 -106c-29 13 -55 22 -78 22c-43 0 -71 -26 -71 -84v-32h162v-114h-162v-401h-130z" horiz-adv-x="438" glyph-name="f"/>
<glyph unicode="g" d="M451 515h130v-457c0 -152 -119 -268 -275 -268c-110 0 -197 58 -240 140l116 61c24 -51 67 -83 124 -83c80 0 145 62 145 150v19c-41 -45 -98 -72 -167 -72c-141 0 -249 113 -249 260s108 260 249 260c69 0 126 -28 167 -73v63zM170 265c0 -80 60 -141 140 -141 s141 61 141 141s-61 141 -141 141s-140 -61 -140 -141z" horiz-adv-x="636" glyph-name="g"/>
<glyph unicode="h" d="M55 0v740h130v-293c36 48 93 78 162 78c124 0 209 -90 209 -213v-312h-130v289c0 69 -50 118 -120 118s-121 -49 -121 -118v-289h-130z" horiz-adv-x="606" glyph-name="h"/>
<glyph unicode="i" d="M55 0v515h130v-515h-130zM55 583v152h130v-152h-130z" horiz-adv-x="240" glyph-name="i"/>
<glyph unicode="j" d="M-10 -200v122c66 -7 85 24 85 86v507h130v-523c0 -138 -54 -202 -215 -192zM75 583v152h130v-152h-130z" horiz-adv-x="260" glyph-name="j"/>
<glyph unicode="k" d="M55 0v740h130v-439l190 214h164l-198 -217l233 -298h-165l-157 201l-67 -73v-128h-130z" horiz-adv-x="569" glyph-name="k"/>
<glyph unicode="l" d="M55 0v740h130v-740h-130z" horiz-adv-x="240" glyph-name="l"/>
<glyph unicode="m" d="M55 0v515h130v-58c35 44 89 68 146 68c72 0 127 -36 160 -88c36 52 94 88 171 88c126 0 215 -95 215 -229v-296h-130v297c0 64 -45 110 -108 110c-62 0 -108 -46 -108 -110v-297h-130v297c0 64 -45 110 -108 110c-62 0 -108 -46 -108 -110v-297h-130z" horiz-adv-x="927" glyph-name="m"/>
<glyph unicode="n" d="M55 0v515h130v-68c36 48 93 78 162 78c124 0 209 -90 209 -213v-312h-130v289c0 69 -50 118 -120 118s-121 -49 -121 -118v-289h-130z" horiz-adv-x="606" glyph-name="n"/>
<glyph unicode="o" d="M35 258c0 151 119 267 275 267s275 -116 275 -267c0 -152 -119 -268 -275 -268s-275 116 -275 268zM170 258c0 -85 60 -149 140 -149s141 64 141 149c0 84 -61 148 -141 148s-140 -64 -140 -148z" horiz-adv-x="620" glyph-name="o"/>
<glyph unicode="p" d="M55 -200v715h130v-65c40 47 98 75 167 75c141 0 249 -116 249 -267c0 -152 -108 -268 -249 -268c-69 0 -127 28 -167 74v-264h-130zM185 258c0 -85 61 -149 141 -149s140 64 140 149c0 84 -60 148 -140 148s-141 -64 -141 -148z" horiz-adv-x="636" glyph-name="p"/>
<glyph unicode="q" d="M451 -200v264c-41 -46 -98 -74 -167 -74c-141 0 -249 116 -249 268c0 151 108 267 249 267c69 0 126 -28 167 -75v65h130v-715h-130zM170 258c0 -85 60 -149 140 -149s141 64 141 149c0 84 -61 148 -141 148s-140 -64 -140 -148z" horiz-adv-x="636" glyph-name="q"/>
<glyph unicode="r" d="M55 0v515h130v-69c44 61 117 94 209 71l-16 -122c-111 34 -193 -15 -193 -106v-289h-130z" horiz-adv-x="399" glyph-name="r"/>
<glyph unicode="s" d="M45 136l129 26c4 -43 40 -65 95 -65c59 0 93 21 93 51c0 99 -301 22 -301 218c0 91 89 159 208 159c122 0 202 -58 217 -145l-129 -28c-7 46 -40 66 -92 66c-40 0 -73 -17 -73 -47c0 -91 301 -21 301 -221c0 -91 -98 -160 -224 -160c-125 0 -211 61 -224 146z" horiz-adv-x="538" glyph-name="s"/>
<glyph unicode="t" d="M15 401v114h105v115l130 41v-156h180v-114h-180v-208c0 -58 28 -84 72 -84c26 0 58 12 92 29l41 -106c-55 -28 -110 -42 -157 -42c-103 0 -178 67 -178 210v201h-105z" horiz-adv-x="470" glyph-name="t"/>
<glyph unicode="u" d="M50 515h130v-298c0 -64 46 -108 111 -108c63 0 110 44 110 108v298h130v-298c0 -134 -102 -227 -240 -227c-141 0 -241 93 -241 227v298z" horiz-adv-x="581" glyph-name="u"/>
<glyph unicode="v" d="M200 0l-205 515h140l142 -379l143 379h131l-205 -515h-146z" horiz-adv-x="546" glyph-name="v"/>
<glyph unicode="w" d="M172 0l-167 515h136l109 -369l112 369h132l112 -369l108 369h128l-167 -515h-143l-108 318l-109 -318h-143z" horiz-adv-x="847" glyph-name="w"/>
<glyph unicode="x" d="M13 0l188 255l-188 260h160l108 -156l111 156h152l-188 -255l188 -260h-160l-109 157l-111 -157h-151z" horiz-adv-x="556" glyph-name="x"/>
<glyph unicode="y" d="M135 -200l73 181l-213 534h140l142 -379l142 379h132l-285 -715h-131z" horiz-adv-x="546" glyph-name="y"/>
<glyph unicode="z" d="M50 0v115l269 286h-269v114h433v-114l-270 -286h270v-115h-433z" horiz-adv-x="533" glyph-name="z"/>
<glyph unicode="æ" d="M35 258c0 151 108 267 249 267c69 0 126 -28 167 -75v65h115v-57c44 42 104 67 171 67c162 0 275 -142 251 -313h-402c14 -60 63 -110 143 -110c58 0 106 28 132 75l110 -48c-42 -81 -123 -139 -229 -139c-70 0 -131 25 -176 68v-58h-115v64c-41 -46 -98 -74 -167 -74 c-141 0 -249 116 -249 268zM170 258c0 -85 60 -149 140 -149s141 64 141 149c0 84 -61 148 -141 148s-140 -64 -140 -148zM588 311h266c-16 60 -66 103 -133 103s-117 -45 -133 -103z" horiz-adv-x="1027" glyph-name="ae"/>
<glyph unicode="ß" d="M55 0v506c0 147 96 244 250 244c139 0 242 -85 242 -205c0 -67 -32 -119 -83 -153c66 -33 116 -102 116 -185c0 -126 -87 -217 -221 -217c-38 0 -82 7 -124 23l26 116c27 -11 54 -16 78 -16c70 0 111 43 111 104c0 60 -49 108 -129 108h-46v114h26c66 0 116 42 116 96 s-47 96 -112 96s-120 -42 -120 -123v-508h-130z" horiz-adv-x="625" glyph-name="germandbls"/>
<glyph unicode="ð" d="M153 522l-25 95l102 30c-45 36 -94 67 -140 93h207c25 -17 48 -35 70 -53l155 45l26 -94l-103 -30c94 -111 135 -235 135 -353c0 -157 -118 -265 -272 -265c-155 0 -273 108 -273 250c0 146 126 249 258 249c38 0 70 -10 96 -25c-18 36 -43 72 -74 105zM170 240 c0 -74 59 -131 138 -131c78 0 138 57 138 131s-60 131 -138 131c-79 0 -138 -57 -138 -131z" horiz-adv-x="615" glyph-name="eth"/>
<glyph unicode="ĳ" d="M55 0v515h130v-515h-130zM55 583v152h130v-152h-130zM230 -200v122c66 -7 85 24 85 86v507h130v-523c0 -138 -54 -202 -215 -192zM315 583v152h130v-152h-130z" horiz-adv-x="500" glyph-name="ij"/>
<glyph unicode="ĸ" d="M55 0v515h130v-214l190 214h164l-198 -217l233 -298h-165l-157 201l-67 -73v-128h-130z" horiz-adv-x="569" glyph-name="kgreenlandic"/>
<glyph unicode="œ" d="M35 258c0 151 119 267 275 267c88 0 162 -38 208 -99c44 61 116 99 203 99c171 0 291 -142 265 -313h-400c14 -60 63 -110 143 -110c58 0 106 28 132 75l107 -48c-45 -81 -130 -139 -242 -139c-89 0 -163 39 -208 100c-46 -61 -119 -100 -208 -100 c-156 0 -275 116 -275 268zM170 258c0 -85 60 -149 140 -149s141 64 141 149c0 84 -61 148 -141 148s-140 -64 -140 -148zM588 311h266c-16 60 -66 103 -133 103s-117 -45 -133 -103z" horiz-adv-x="1026" glyph-name="oe"/>
<glyph unicode="ø" d="M58 -3l52 74c-47 48 -75 113 -75 187c0 151 119 267 275 267c37 0 72 -7 104 -19l54 77l94 -65l-52 -74c47 -48 75 -113 75 -186c0 -152 -119 -268 -275 -268c-38 0 -73 7 -105 18l-53 -76zM162 258c0 -31 7 -59 20 -83l164 234c-11 3 -24 5 -36 5 c-84 0 -148 -67 -148 -156zM458 258c0 30 -8 58 -21 82l-163 -234c11 -3 23 -4 36 -4c85 0 148 66 148 156z" horiz-adv-x="620" glyph-name="oslash"/>
<glyph unicode="þ" d="M55 -200v940h130v-290c40 47 98 75 167 75c141 0 249 -116 249 -267c0 -152 -108 -268 -249 -268c-69 0 -127 28 -167 74v-264h-130zM185 258c0 -85 61 -149 141 -149s140 64 140 149c0 84 -60 148 -140 148s-141 -64 -141 -148z" horiz-adv-x="636" glyph-name="thorn"/>
<glyph unicode="á" d="M451 0v64c-41 -46 -98 -74 -167 -74c-141 0 -249 116 -249 268c0 151 108 267 249 267c69 0 126 -28 167 -75v65h130v-515h-130zM170 258c0 -85 60 -149 140 -149s141 64 141 149c0 84 -61 148 -141 148s-140 -64 -140 -148zM230 579l106 160h144l-120 -160h-130z" horiz-adv-x="636" glyph-name="aacute"/>
<glyph unicode="ă" d="M451 0v64c-41 -46 -98 -74 -167 -74c-141 0 -249 116 -249 268c0 151 108 267 249 267c69 0 126 -28 167 -75v65h130v-515h-130zM152 738h99c0 -41 24 -69 64 -69c41 0 63 28 63 69h100c0 -103 -67 -165 -163 -165c-95 0 -163 62 -163 165zM170 258 c0 -85 60 -149 140 -149s141 64 141 149c0 84 -61 148 -141 148s-140 -64 -140 -148z" horiz-adv-x="636" glyph-name="abreve"/>
<glyph unicode="â" d="M451 0v64c-41 -46 -98 -74 -167 -74c-141 0 -249 116 -249 268c0 151 108 267 249 267c69 0 126 -28 167 -75v65h130v-515h-130zM129 579l113 160h146l113 -160h-122l-64 81l-64 -81h-122zM170 258c0 -85 60 -149 140 -149s141 64 141 149c0 84 -61 148 -141 148 s-140 -64 -140 -148z" horiz-adv-x="636" glyph-name="acircumflex"/>
<glyph unicode="ä" d="M451 0v64c-41 -46 -98 -74 -167 -74c-141 0 -249 116 -249 268c0 151 108 267 249 267c69 0 126 -28 167 -75v65h130v-515h-130zM139 583v152h123v-152h-123zM369 583v152h123v-152h-123zM170 258c0 -85 60 -149 140 -149s141 64 141 149c0 84 -61 148 -141 148 s-140 -64 -140 -148z" horiz-adv-x="636" glyph-name="adieresis"/>
<glyph unicode="à" d="M451 0v64c-41 -46 -98 -74 -167 -74c-141 0 -249 116 -249 268c0 151 108 267 249 267c69 0 126 -28 167 -75v65h130v-515h-130zM170 258c0 -85 60 -149 140 -149s141 64 141 149c0 84 -61 148 -141 148s-140 -64 -140 -148zM271 579l-121 160h145l105 -160h-129z" horiz-adv-x="636" glyph-name="agrave"/>
<glyph unicode="ā" d="M451 0v64c-41 -46 -98 -74 -167 -74c-141 0 -249 116 -249 268c0 151 108 267 249 267c69 0 126 -28 167 -75v65h130v-515h-130zM157 609v100h315v-100h-315zM170 258c0 -85 60 -149 140 -149s141 64 141 149c0 84 -61 148 -141 148s-140 -64 -140 -148z" horiz-adv-x="636" glyph-name="amacron"/>
<glyph unicode="ą" d="M451 3v61c-41 -46 -98 -74 -167 -74c-141 0 -249 116 -249 268c0 151 108 267 249 267c69 0 126 -28 167 -75v65h130v-515h-22c-19 -17 -30 -41 -30 -62s13 -39 43 -39c11 0 21 2 35 6l11 -100c-25 -10 -54 -15 -83 -15c-82 0 -130 41 -130 102c0 36 16 73 46 111z M170 258c0 -85 60 -149 140 -149s141 64 141 149c0 84 -61 148 -141 148s-140 -64 -140 -148z" horiz-adv-x="636" glyph-name="aogonek"/>
<glyph unicode="å" d="M451 0v64c-41 -46 -98 -74 -167 -74c-141 0 -249 116 -249 268c0 151 108 267 249 267c69 0 126 -28 167 -75v65h130v-515h-130zM189 659c0 64 55 114 127 114s126 -50 126 -114c0 -65 -54 -114 -126 -114s-127 49 -127 114zM271 659c0 -26 20 -45 45 -45 c26 0 45 19 45 45s-19 45 -45 45c-25 0 -45 -19 -45 -45zM170 258c0 -85 60 -149 140 -149s141 64 141 149c0 84 -61 148 -141 148s-140 -64 -140 -148z" horiz-adv-x="636" glyph-name="aring"/>
<glyph unicode="ã" d="M451 0v64c-41 -46 -98 -74 -167 -74c-141 0 -249 116 -249 268c0 151 108 267 249 267c69 0 126 -28 167 -75v65h130v-515h-130zM198 592l-83 40c16 60 69 104 133 104c74 0 97 -53 135 -53c22 0 40 15 50 43l82 -40c-16 -60 -68 -104 -132 -104c-75 0 -98 52 -135 52 c-23 0 -41 -15 -50 -42zM170 258c0 -85 60 -149 140 -149s141 64 141 149c0 84 -61 148 -141 148s-140 -64 -140 -148z" horiz-adv-x="636" glyph-name="atilde"/>
<glyph unicode="ć" d="M225 579l106 160h144l-120 -160h-130zM35 258c0 151 119 267 275 267c110 0 193 -58 237 -141l-110 -58c-25 49 -70 80 -127 80c-80 0 -140 -64 -140 -148c0 -85 60 -149 140 -149c57 0 102 32 127 80l110 -58c-44 -83 -127 -141 -237 -141c-156 0 -275 116 -275 268z " horiz-adv-x="582" glyph-name="cacute"/>
<glyph unicode="č" d="M237 579l-113 160h122l64 -82l64 82h122l-113 -160h-146zM35 258c0 151 119 267 275 267c110 0 193 -58 237 -141l-110 -58c-25 49 -70 80 -127 80c-80 0 -140 -64 -140 -148c0 -85 60 -149 140 -149c57 0 102 32 127 80l110 -58c-44 -83 -127 -141 -237 -141 c-156 0 -275 116 -275 268z" horiz-adv-x="582" glyph-name="ccaron"/>
<glyph unicode="ç" d="M191 -201l15 104c10 -3 19 -4 28 -4c33 0 52 17 52 42c0 17 -10 36 -30 54c-129 23 -221 129 -221 263c0 151 119 267 275 267c110 0 193 -58 237 -141l-110 -58c-25 49 -70 80 -127 80c-80 0 -140 -64 -140 -148c0 -85 60 -149 140 -149c57 0 102 32 127 80l110 -58 c-35 -66 -94 -116 -172 -134c23 -30 35 -61 35 -90c0 -66 -57 -117 -147 -117c-22 0 -46 2 -72 9z" horiz-adv-x="582" glyph-name="ccedilla"/>
<glyph unicode="ď" d="M451 0v64c-41 -46 -98 -74 -167 -74c-141 0 -249 116 -249 268c0 151 108 267 249 267c69 0 126 -28 167 -75v290h130v-740h-130zM170 258c0 -85 60 -149 140 -149s141 64 141 149c0 84 -61 148 -141 148s-140 -64 -140 -148zM625 575l31 193h117l-50 -193h-98z" horiz-adv-x="773" glyph-name="dcaron"/>
<glyph unicode="đ" d="M323 582v100h128v58h130v-58h57v-100h-57v-582h-130v64c-41 -46 -98 -74 -167 -74c-141 0 -249 116 -249 268c0 151 108 267 249 267c69 0 126 -28 167 -75v132h-128zM170 258c0 -85 60 -149 140 -149s141 64 141 149c0 84 -61 148 -141 148s-140 -64 -140 -148z" horiz-adv-x="636" glyph-name="dcroat"/>
<glyph unicode="é" d="M220 579l106 160h144l-120 -160h-130zM35 258c0 151 117 267 270 267c171 0 292 -142 266 -313h-401c15 -60 63 -110 144 -110c57 0 106 28 132 75l107 -48c-45 -81 -131 -139 -243 -139c-156 0 -275 116 -275 268zM172 311h267c-17 60 -67 103 -134 103 s-117 -45 -133 -103z" horiz-adv-x="610" glyph-name="eacute"/>
<glyph unicode="ĕ" d="M35 258c0 151 117 267 270 267c171 0 292 -142 266 -313h-401c15 -60 63 -110 144 -110c57 0 106 28 132 75l107 -48c-45 -81 -131 -139 -243 -139c-156 0 -275 116 -275 268zM172 311h267c-17 60 -67 103 -134 103s-117 -45 -133 -103zM142 738h99c0 -41 24 -69 64 -69 c41 0 63 28 63 69h100c0 -103 -67 -165 -163 -165c-95 0 -163 62 -163 165z" horiz-adv-x="610" glyph-name="ebreve"/>
<glyph unicode="ě" d="M232 579l-113 160h122l64 -82l64 82h122l-113 -160h-146zM35 258c0 151 117 267 270 267c171 0 292 -142 266 -313h-401c15 -60 63 -110 144 -110c57 0 106 28 132 75l107 -48c-45 -81 -131 -139 -243 -139c-156 0 -275 116 -275 268zM172 311h267 c-17 60 -67 103 -134 103s-117 -45 -133 -103z" horiz-adv-x="610" glyph-name="ecaron"/>
<glyph unicode="ê" d="M119 579l113 160h146l113 -160h-122l-64 81l-64 -81h-122zM35 258c0 151 117 267 270 267c171 0 292 -142 266 -313h-401c15 -60 63 -110 144 -110c57 0 106 28 132 75l107 -48c-45 -81 -131 -139 -243 -139c-156 0 -275 116 -275 268zM172 311h267 c-17 60 -67 103 -134 103s-117 -45 -133 -103z" horiz-adv-x="610" glyph-name="ecircumflex"/>
<glyph unicode="ë" d="M128 583v152h123v-152h-123zM358 583v152h123v-152h-123zM35 258c0 151 117 267 270 267c171 0 292 -142 266 -313h-401c15 -60 63 -110 144 -110c57 0 106 28 132 75l107 -48c-45 -81 -131 -139 -243 -139c-156 0 -275 116 -275 268zM172 311h267 c-17 60 -67 103 -134 103s-117 -45 -133 -103z" horiz-adv-x="610" glyph-name="edieresis"/>
<glyph unicode="ė" d="M35 258c0 151 117 267 270 267c171 0 292 -142 266 -313h-401c15 -60 63 -110 144 -110c57 0 106 28 132 75l107 -48c-45 -81 -131 -139 -243 -139c-156 0 -275 116 -275 268zM172 311h267c-17 60 -67 103 -134 103s-117 -45 -133 -103zM240 583v152h130v-152h-130z" horiz-adv-x="610" glyph-name="edotaccent"/>
<glyph unicode="è" d="M35 258c0 151 117 267 270 267c171 0 292 -142 266 -313h-401c15 -60 63 -110 144 -110c57 0 106 28 132 75l107 -48c-45 -81 -131 -139 -243 -139c-156 0 -275 116 -275 268zM172 311h267c-17 60 -67 103 -134 103s-117 -45 -133 -103zM261 579l-121 160h145l105 -160 h-129z" horiz-adv-x="610" glyph-name="egrave"/>
<glyph unicode="ē" d="M35 258c0 151 117 267 270 267c171 0 292 -142 266 -313h-401c15 -60 63 -110 144 -110c57 0 106 28 132 75l107 -48c-45 -81 -131 -139 -243 -139c-156 0 -275 116 -275 268zM172 311h267c-17 60 -67 103 -134 103s-117 -45 -133 -103zM147 609v100h315v-100h-315z" horiz-adv-x="610" glyph-name="emacron"/>
<glyph unicode="ę" d="M35 258c0 151 117 267 270 267c171 0 292 -142 266 -313h-401c15 -60 63 -110 144 -110c57 0 106 28 132 75l107 -48c-7 -12 -15 -24 -23 -35c-25 -41 -53 -104 -53 -148c0 -27 12 -47 43 -47c12 0 21 2 35 6l11 -100c-24 -10 -54 -15 -83 -15c-82 0 -130 41 -130 104 c0 33 10 68 35 106c-24 -6 -50 -10 -78 -10c-156 0 -275 116 -275 268zM172 311h267c-17 60 -67 103 -134 103s-117 -45 -133 -103z" horiz-adv-x="610" glyph-name="eogonek"/>
<glyph unicode="ğ" d="M451 515h130v-457c0 -152 -119 -268 -275 -268c-110 0 -197 58 -240 140l116 61c24 -51 67 -83 124 -83c80 0 145 62 145 150v19c-41 -45 -98 -72 -167 -72c-141 0 -249 113 -249 260s108 260 249 260c69 0 126 -28 167 -73v63zM152 738h99c0 -41 24 -69 64 -69 c41 0 63 28 63 69h100c0 -103 -67 -165 -163 -165c-95 0 -163 62 -163 165zM170 265c0 -80 60 -141 140 -141s141 61 141 141s-61 141 -141 141s-140 -61 -140 -141z" horiz-adv-x="636" glyph-name="gbreve"/>
<glyph unicode="ģ" d="M451 515h130v-457c0 -152 -119 -268 -275 -268c-110 0 -197 58 -240 140l116 61c24 -51 67 -83 124 -83c80 0 145 62 145 150v19c-41 -45 -98 -72 -167 -72c-141 0 -249 113 -249 260s108 260 249 260c69 0 126 -28 167 -73v63zM395 740l-31 -167h-124l49 167h106z M170 265c0 -80 60 -141 140 -141s141 61 141 141s-61 141 -141 141s-140 -61 -140 -141z" horiz-adv-x="636" glyph-name="gcommaaccent"/>
<glyph unicode="í" d="M35 579l106 160h144l-120 -160h-130zM55 0v515h130v-515h-130z" horiz-adv-x="240" glyph-name="iacute"/>
<glyph unicode="î" d="M-65 579l113 160h146l113 -160h-122l-64 81l-64 -81h-122zM55 0v515h130v-515h-130z" horiz-adv-x="240" glyph-name="icircumflex"/>
<glyph unicode="ï" d="M-29 583v152h115v-152h-115zM154 583v152h115v-152h-115zM55 0v515h130v-515h-130z" horiz-adv-x="240" glyph-name="idieresis"/>
<glyph unicode="ı" d="M55 0v515h130v-515h-130z" horiz-adv-x="240" glyph-name="dotlessi"/>
<glyph unicode="ì" d="M55 0v515h130v-515h-130zM76 579l-121 160h145l105 -160h-129z" horiz-adv-x="240" glyph-name="igrave"/>
<glyph unicode="ī" d="M-13 609v100h266v-100h-266zM55 0v515h130v-515h-130z" horiz-adv-x="240" glyph-name="imacron"/>
<glyph unicode="į" d="M55 0v515h130v-515h-14c-19 -17 -30 -41 -30 -62s13 -39 43 -39c11 0 21 2 35 6l11 -100c-25 -10 -54 -15 -83 -15c-82 0 -130 41 -130 102c0 35 15 71 43 108h-5zM55 583v152h130v-152h-130z" horiz-adv-x="240" glyph-name="iogonek"/>
<glyph unicode="ķ" d="M206 -210l31 167h124l-49 -167h-106zM55 0v740h130v-439l190 214h164l-198 -217l233 -298h-165l-157 201l-67 -73v-128h-130z" horiz-adv-x="569" glyph-name="kcommaaccent"/>
<glyph unicode="ĺ" d="M24 786l145 154h159l-160 -154h-144zM55 0v740h130v-740h-130z" horiz-adv-x="240" glyph-name="lacute"/>
<glyph unicode="ľ" d="M230 575l31 193h117l-50 -193h-98zM55 0v740h130v-740h-130z" horiz-adv-x="378" glyph-name="lcaron"/>
<glyph unicode="ļ" d="M43 -210l31 167h124l-49 -167h-106zM55 0v740h130v-740h-130z" horiz-adv-x="240" glyph-name="lcommaaccent"/>
<glyph unicode="ł" d="M-8 264v102l83 24v350h130v-312l83 25v-102l-83 -25v-326h-130v288z" horiz-adv-x="280" glyph-name="lslash"/>
<glyph unicode="ń" d="M217 579l106 160h144l-120 -160h-130zM55 0v515h130v-68c36 48 93 78 162 78c124 0 209 -90 209 -213v-312h-130v289c0 69 -50 118 -120 118s-121 -49 -121 -118v-289h-130z" horiz-adv-x="606" glyph-name="nacute"/>
<glyph unicode="ň" d="M229 579l-113 160h122l64 -82l64 82h122l-113 -160h-146zM55 0v515h130v-68c36 48 93 78 162 78c124 0 209 -90 209 -213v-312h-130v289c0 69 -50 118 -120 118s-121 -49 -121 -118v-289h-130z" horiz-adv-x="606" glyph-name="ncaron"/>
<glyph unicode="ņ" d="M225 -210l31 167h124l-49 -167h-106zM55 0v515h130v-68c36 48 93 78 162 78c124 0 209 -90 209 -213v-312h-130v289c0 69 -50 118 -120 118s-121 -49 -121 -118v-289h-130z" horiz-adv-x="606" glyph-name="ncommaaccent"/>
<glyph unicode="ñ" d="M55 0v515h130v-68c36 48 93 78 162 78c124 0 209 -90 209 -213v-312h-130v289c0 69 -50 118 -120 118s-121 -49 -121 -118v-289h-130zM185 592l-83 40c16 60 69 104 133 104c74 0 97 -53 135 -53c22 0 40 15 50 43l82 -40c-16 -60 -68 -104 -132 -104 c-75 0 -98 52 -135 52c-23 0 -41 -15 -50 -42z" horiz-adv-x="606" glyph-name="ntilde"/>
<glyph unicode="ó" d="M225 579l106 160h144l-120 -160h-130zM35 258c0 151 119 267 275 267s275 -116 275 -267c0 -152 -119 -268 -275 -268s-275 116 -275 268zM170 258c0 -85 60 -149 140 -149s141 64 141 149c0 84 -61 148 -141 148s-140 -64 -140 -148z" horiz-adv-x="620" glyph-name="oacute"/>
<glyph unicode="ô" d="M124 579l113 160h146l113 -160h-122l-64 81l-64 -81h-122zM35 258c0 151 119 267 275 267s275 -116 275 -267c0 -152 -119 -268 -275 -268s-275 116 -275 268zM170 258c0 -85 60 -149 140 -149s141 64 141 149c0 84 -61 148 -141 148s-140 -64 -140 -148z" horiz-adv-x="620" glyph-name="ocircumflex"/>
<glyph unicode="ö" d="M133 583v152h123v-152h-123zM363 583v152h123v-152h-123zM35 258c0 151 119 267 275 267s275 -116 275 -267c0 -152 -119 -268 -275 -268s-275 116 -275 268zM170 258c0 -85 60 -149 140 -149s141 64 141 149c0 84 -61 148 -141 148s-140 -64 -140 -148z" horiz-adv-x="620" glyph-name="odieresis"/>
<glyph unicode="ò" d="M35 258c0 151 119 267 275 267s275 -116 275 -267c0 -152 -119 -268 -275 -268s-275 116 -275 268zM170 258c0 -85 60 -149 140 -149s141 64 141 149c0 84 -61 148 -141 148s-140 -64 -140 -148zM266 579l-121 160h145l105 -160h-129z" horiz-adv-x="620" glyph-name="ograve"/>
<glyph unicode="ő" d="M138 579l106 160h129l-120 -160h-115zM327 579l105 160h130l-121 -160h-114zM35 258c0 151 119 267 275 267s275 -116 275 -267c0 -152 -119 -268 -275 -268s-275 116 -275 268zM170 258c0 -85 60 -149 140 -149s141 64 141 149c0 84 -61 148 -141 148 s-140 -64 -140 -148z" horiz-adv-x="620" glyph-name="ohungarumlaut"/>
<glyph unicode="ō" d="M152 609v100h315v-100h-315zM35 258c0 151 119 267 275 267s275 -116 275 -267c0 -152 -119 -268 -275 -268s-275 116 -275 268zM170 258c0 -85 60 -149 140 -149s141 64 141 149c0 84 -61 148 -141 148s-140 -64 -140 -148z" horiz-adv-x="620" glyph-name="omacron"/>
<glyph unicode="õ" d="M35 258c0 151 119 267 275 267s275 -116 275 -267c0 -152 -119 -268 -275 -268s-275 116 -275 268zM170 258c0 -85 60 -149 140 -149s141 64 141 149c0 84 -61 148 -141 148s-140 -64 -140 -148zM193 592l-83 40c16 60 69 104 133 104c74 0 97 -53 135 -53 c22 0 40 15 50 43l82 -40c-16 -60 -68 -104 -132 -104c-75 0 -98 52 -135 52c-23 0 -41 -15 -50 -42z" horiz-adv-x="620" glyph-name="otilde"/>
<glyph unicode="ŕ" d="M114 579l106 160h144l-120 -160h-130zM55 0v515h130v-69c44 61 117 94 209 71l-16 -122c-111 34 -193 -15 -193 -106v-289h-130z" horiz-adv-x="399" glyph-name="racute"/>
<glyph unicode="ř" d="M127 579l-113 160h122l64 -82l64 82h122l-113 -160h-146zM55 0v515h130v-69c44 61 117 94 209 71l-16 -122c-111 34 -193 -15 -193 -106v-289h-130z" horiz-adv-x="399" glyph-name="rcaron"/>
<glyph unicode="ŗ" d="M42 -210l31 167h124l-49 -167h-106zM55 0v515h130v-69c44 61 117 94 209 71l-16 -122c-111 34 -193 -15 -193 -106v-289h-130z" horiz-adv-x="399" glyph-name="rcommaaccent"/>
<glyph unicode="ś" d="M183 579l106 160h144l-120 -160h-130zM45 136l129 26c4 -43 40 -65 95 -65c59 0 93 21 93 51c0 99 -301 22 -301 218c0 91 89 159 208 159c122 0 202 -58 217 -145l-129 -28c-7 46 -40 66 -92 66c-40 0 -73 -17 -73 -47c0 -91 301 -21 301 -221c0 -91 -98 -160 -224 -160 c-125 0 -211 61 -224 146z" horiz-adv-x="538" glyph-name="sacute"/>
<glyph unicode="š" d="M196 579l-113 160h122l64 -82l64 82h122l-113 -160h-146zM45 136l129 26c4 -43 40 -65 95 -65c59 0 93 21 93 51c0 99 -301 22 -301 218c0 91 89 159 208 159c122 0 202 -58 217 -145l-129 -28c-7 46 -40 66 -92 66c-40 0 -73 -17 -73 -47c0 -91 301 -21 301 -221 c0 -91 -98 -160 -224 -160c-125 0 -211 61 -224 146z" horiz-adv-x="538" glyph-name="scaron"/>
<glyph unicode="ş" d="M159 -201l15 104c10 -3 19 -4 28 -4c33 0 52 17 52 42c0 16 -9 35 -28 52c-102 11 -170 68 -181 143l129 26c4 -43 40 -65 95 -65c59 0 93 21 93 51c0 99 -301 22 -301 218c0 91 89 159 208 159c122 0 202 -58 217 -145l-129 -28c-7 46 -40 66 -92 66 c-40 0 -73 -17 -73 -47c0 -91 301 -21 301 -221c0 -73 -62 -131 -151 -151c24 -31 36 -62 36 -92c0 -66 -57 -117 -147 -117c-22 0 -46 2 -72 9z" horiz-adv-x="538" glyph-name="scedilla"/>
<glyph unicode="ș" d="M191 -210l31 167h124l-49 -167h-106zM45 136l129 26c4 -43 40 -65 95 -65c59 0 93 21 93 51c0 99 -301 22 -301 218c0 91 89 159 208 159c122 0 202 -58 217 -145l-129 -28c-7 46 -40 66 -92 66c-40 0 -73 -17 -73 -47c0 -91 301 -21 301 -221c0 -91 -98 -160 -224 -160 c-125 0 -211 61 -224 146z" horiz-adv-x="538" glyph-name="uni0219"/>
<glyph unicode="ť" d="M295 575l31 193h117l-50 -193h-98zM15 401v114h105v115l130 41v-156h180v-114h-180v-208c0 -58 28 -84 72 -84c26 0 58 12 92 29l41 -106c-55 -28 -110 -42 -157 -42c-103 0 -178 67 -178 210v201h-105z" horiz-adv-x="470" glyph-name="tcaron"/>
<glyph unicode="ţ" d="M188 -210l31 167h124l-49 -167h-106zM15 401v114h105v115l130 41v-156h180v-114h-180v-208c0 -58 28 -84 72 -84c26 0 58 12 92 29l41 -106c-55 -28 -110 -42 -157 -42c-103 0 -178 67 -178 210v201h-105z" horiz-adv-x="470" glyph-name="uni0163"/>
<glyph unicode="ț" d="M188 -210l31 167h124l-49 -167h-106zM15 401v114h105v115l130 41v-156h180v-114h-180v-208c0 -58 28 -84 72 -84c26 0 58 12 92 29l41 -106c-55 -28 -110 -42 -157 -42c-103 0 -178 67 -178 210v201h-105z" horiz-adv-x="470" glyph-name="uni021B"/>
<glyph unicode="ú" d="M205 579l106 160h144l-120 -160h-130zM50 515h130v-298c0 -64 46 -108 111 -108c63 0 110 44 110 108v298h130v-298c0 -134 -102 -227 -240 -227c-141 0 -241 93 -241 227v298z" horiz-adv-x="581" glyph-name="uacute"/>
<glyph unicode="ŭ" d="M50 515h130v-298c0 -64 46 -108 111 -108c63 0 110 44 110 108v298h130v-298c0 -134 -102 -227 -240 -227c-141 0 -241 93 -241 227v298zM127 738h99c0 -41 24 -69 64 -69c41 0 63 28 63 69h100c0 -103 -67 -165 -163 -165c-95 0 -163 62 -163 165z" horiz-adv-x="581" glyph-name="ubreve"/>
<glyph unicode="û" d="M104 579l113 160h146l113 -160h-122l-64 81l-64 -81h-122zM50 515h130v-298c0 -64 46 -108 111 -108c63 0 110 44 110 108v298h130v-298c0 -134 -102 -227 -240 -227c-141 0 -241 93 -241 227v298z" horiz-adv-x="581" glyph-name="ucircumflex"/>
<glyph unicode="ü" d="M114 583v152h123v-152h-123zM344 583v152h123v-152h-123zM50 515h130v-298c0 -64 46 -108 111 -108c63 0 110 44 110 108v298h130v-298c0 -134 -102 -227 -240 -227c-141 0 -241 93 -241 227v298z" horiz-adv-x="581" glyph-name="udieresis"/>
<glyph unicode="ù" d="M50 515h130v-298c0 -64 46 -108 111 -108c63 0 110 44 110 108v298h130v-298c0 -134 -102 -227 -240 -227c-141 0 -241 93 -241 227v298zM246 579l-121 160h145l105 -160h-129z" horiz-adv-x="581" glyph-name="ugrave"/>
<glyph unicode="ű" d="M50 515h130v-298c0 -64 46 -108 111 -108c63 0 110 44 110 108v298h130v-298c0 -134 -102 -227 -240 -227c-141 0 -241 93 -241 227v298zM118 579l106 160h129l-120 -160h-115zM307 579l105 160h130l-121 -160h-114z" horiz-adv-x="581" glyph-name="uhungarumlaut"/>
<glyph unicode="ū" d="M50 515h130v-298c0 -64 46 -108 111 -108c63 0 110 44 110 108v298h130v-298c0 -134 -102 -227 -240 -227c-141 0 -241 93 -241 227v298zM133 609v100h315v-100h-315z" horiz-adv-x="581" glyph-name="umacron"/>
<glyph unicode="ų" d="M50 515h130v-298c0 -64 46 -108 111 -108c63 0 110 44 110 108v298h130v-298c0 -111 -70 -193 -171 -218c-18 -17 -28 -40 -28 -61s13 -39 43 -39c11 0 21 2 35 6l11 -100c-25 -10 -54 -15 -83 -15c-82 0 -130 41 -130 102c0 33 13 67 38 101c-117 17 -196 104 -196 224 v298z" horiz-adv-x="581" glyph-name="uogonek"/>
<glyph unicode="ů" d="M164 659c0 64 55 114 127 114s126 -50 126 -114c0 -65 -54 -114 -126 -114s-127 49 -127 114zM246 659c0 -26 20 -45 45 -45c26 0 45 19 45 45s-19 45 -45 45c-25 0 -45 -19 -45 -45zM50 515h130v-298c0 -64 46 -108 111 -108c63 0 110 44 110 108v298h130v-298 c0 -134 -102 -227 -240 -227c-141 0 -241 93 -241 227v298z" horiz-adv-x="581" glyph-name="uring"/>
<glyph unicode="ũ" d="M50 515h130v-298c0 -64 46 -108 111 -108c63 0 110 44 110 108v298h130v-298c0 -134 -102 -227 -240 -227c-141 0 -241 93 -241 227v298zM173 592l-83 40c16 60 69 104 133 104c74 0 97 -53 135 -53c22 0 40 15 50 43l82 -40c-16 -60 -68 -104 -132 -104 c-75 0 -98 52 -135 52c-23 0 -41 -15 -50 -42z" horiz-adv-x="581" glyph-name="utilde"/>
<glyph unicode="ý" d="M135 -200l73 181l-213 534h140l142 -379l142 379h132l-285 -715h-131zM188 579l106 160h144l-120 -160h-130z" horiz-adv-x="546" glyph-name="yacute"/>
<glyph unicode="ÿ" d="M135 -200l73 181l-213 534h140l142 -379l142 379h132l-285 -715h-131zM96 583v152h123v-152h-123zM326 583v152h123v-152h-123z" horiz-adv-x="546" glyph-name="ydieresis"/>
<glyph unicode="ź" d="M181 579l106 160h144l-120 -160h-130zM50 0v115l269 286h-269v114h433v-114l-270 -286h270v-115h-433z" horiz-adv-x="533" glyph-name="zacute"/>
<glyph unicode="ž" d="M193 579l-113 160h122l64 -82l64 82h122l-113 -160h-146zM50 0v115l269 286h-269v114h433v-114l-270 -286h270v-115h-433z" horiz-adv-x="533" glyph-name="zcaron"/>
<glyph unicode="ż" d="M50 0v115l269 286h-269v114h433v-114l-270 -286h270v-115h-433zM201 583v152h130v-152h-130z" horiz-adv-x="533" glyph-name="zdotaccent"/>
<glyph unicode="ﬀ" d="M113 0v401h-98v114h98v26c0 142 74 209 177 209c44 0 93 -11 143 -35l-41 -106c-29 13 -55 22 -78 22c-43 0 -71 -26 -71 -84v-32h231v26c0 142 74 209 177 209c44 0 93 -11 143 -35l-41 -106c-29 13 -55 22 -78 22c-43 0 -71 -26 -71 -84v-32h162v-114h-162v-401h-130 v401h-231v-401h-130z" horiz-adv-x="799" glyph-name="f_f"/>
<glyph unicode="ﬁ" d="M113 0v401h-98v114h98v26c0 142 74 209 177 209c44 0 93 -11 143 -35l-41 -106c-29 13 -55 22 -78 22c-43 0 -71 -26 -71 -84v-32h361v-515h-130v401h-231v-401h-130zM474 583v152h130v-152h-130z" horiz-adv-x="659" glyph-name="f_i"/>
<glyph unicode="ﬂ" d="M113 0v401h-98v114h98v26c0 142 74 209 177 209c44 0 93 -11 143 -35l-41 -106c-29 13 -55 22 -78 22c-43 0 -71 -26 -71 -84v-32h231v225h130v-740h-130v401h-231v-401h-130z" horiz-adv-x="659" glyph-name="f_l"/>
<glyph unicode="$" d="M277 -125v118c-136 13 -218 87 -232 189l139 27c11 -45 37 -77 93 -88v183c-104 28 -214 65 -214 201c0 106 85 187 214 202v118h88v-118c131 -13 206 -86 223 -188l-139 -28c-11 46 -35 76 -84 88v-168c108 -28 230 -65 230 -213c0 -109 -91 -192 -230 -206v-117h-88z M453 194c0 45 -37 67 -88 85v-160c58 8 88 35 88 75zM204 508c0 -38 30 -58 73 -73v146c-50 -9 -73 -36 -73 -73z" horiz-adv-x="640" glyph-name="dollar"/>
<glyph unicode="¢" d="M264 -121v115c-133 20 -229 127 -229 264c0 135 96 243 229 263v115h88v-114c89 -13 157 -66 195 -138l-110 -58c-19 36 -48 62 -85 74v-285c37 11 66 38 85 74l110 -58c-38 -72 -106 -125 -195 -138v-114h-88zM170 258c0 -68 38 -122 94 -142v282 c-56 -19 -94 -73 -94 -140z" horiz-adv-x="582" glyph-name="cent"/>
<glyph unicode="£" d="M55 0v122h63v186h-63v84h63v91c0 134 100 227 240 227c139 0 241 -93 241 -227h-138c0 59 -44 101 -103 101s-103 -42 -103 -101v-91h208v-84h-208v-186h308v-122h-508z" horiz-adv-x="634" glyph-name="sterling"/>
<glyph unicode="¥" d="M54 308v84h116l-173 308h162l177 -335l177 335h154l-174 -308h118v-84h-165l-45 -81v-227h-138v227l-46 81h-163z" horiz-adv-x="664" glyph-name="yen"/>
<glyph unicode="ƒ" d="M25 25l41 106c29 -13 55 -22 78 -22c43 0 71 26 71 84v115h-137v84h137v109c0 142 75 209 178 209c43 0 93 -11 143 -35l-42 -106c-28 13 -54 22 -77 22c-43 0 -72 -26 -72 -84v-115h158v-84h-158v-108c0 -143 -74 -210 -177 -210c-44 0 -93 12 -143 35z" horiz-adv-x="561" glyph-name="florin"/>
<glyph unicode="€" d="M35 234v85h53c-1 10 -1 20 -1 31s0 21 1 32h-53v84h66c40 157 163 244 301 244s247 -87 292 -218l-140 -28c-28 72 -84 120 -152 120c-66 0 -125 -43 -154 -118h243l-17 -84h-244c-1 -11 -1 -21 -1 -32s0 -21 1 -31h229l-18 -85h-192c29 -75 87 -117 153 -117 c68 0 124 47 152 119l140 -27c-45 -131 -154 -219 -292 -219s-261 86 -301 244h-66z" horiz-adv-x="729" glyph-name="Euro"/>
<glyph unicode="¤" d="M95 350c0 52 14 99 40 139l-96 96l97 97l99 -100c39 22 85 36 135 36c51 0 96 -14 135 -36l100 100l97 -97l-96 -96c25 -40 39 -87 39 -139s-14 -100 -39 -139l96 -95l-97 -97l-100 98c-39 -22 -84 -34 -135 -34c-50 0 -96 12 -135 34l-99 -98l-97 97l95 95 c-25 39 -39 87 -39 139zM230 350c0 -85 60 -148 140 -148s141 63 141 148s-61 149 -141 149s-140 -64 -140 -149z" glyph-name="currency"/>
<glyph unicode="#" d="M344 0l48 169h-135l-48 -169h-122l48 169h-100l33 114h100l38 134h-100l33 115h100l48 168h122l-48 -168h135l48 168h123l-48 -168h99l-33 -115h-99l-38 -134h99l-33 -114h-99l-48 -169h-123zM328 417l-38 -134h135l38 134h-135z" horiz-adv-x="753" glyph-name="numbersign"/>
<glyph unicode="0" d="M45 350c0 205 120 360 286 360s286 -155 286 -360s-120 -360 -286 -360s-286 155 -286 360zM187 350c0 -133 60 -233 144 -233c83 0 144 100 144 233c0 134 -61 234 -144 234c-84 0 -144 -100 -144 -234z" horiz-adv-x="662" glyph-name="zero"/>
<glyph unicode="1" d="M35 0v122h193v431l-193 -50v122l330 85v-588h163v-122h-493z" horiz-adv-x="533" glyph-name="one"/>
<glyph unicode="2" d="M59 0v122l293 257c33 29 60 66 60 113c0 51 -35 92 -106 92c-63 0 -106 -39 -108 -112l-142 16c10 143 105 222 250 222c148 0 248 -81 248 -214c0 -89 -52 -162 -115 -214l-182 -160h307v-122h-505z" horiz-adv-x="619" glyph-name="two"/>
<glyph unicode="3" d="M25 212l142 16c2 -72 45 -111 111 -111c76 0 113 43 113 96c0 60 -39 109 -130 109h-62v103l139 153h-279v122h449v-122l-148 -161c98 -19 173 -95 173 -208c0 -133 -102 -219 -256 -219c-147 0 -242 80 -252 222z" horiz-adv-x="578" glyph-name="three"/>
<glyph unicode="4" d="M5 135v122l346 443l4 -1v1h138v-443h87v-122h-87v-135h-138v135h-350zM154 257h201v258z" horiz-adv-x="605" glyph-name="four"/>
<glyph unicode="5" d="M45 198l141 17c6 -61 48 -98 111 -98c67 0 117 48 117 115c0 68 -47 116 -112 116c-53 0 -88 -26 -108 -59l-128 16l49 395h387v-122h-279l-19 -154c39 25 82 38 129 38c124 0 223 -89 223 -230c0 -140 -110 -242 -259 -242c-145 0 -238 77 -252 208z" horiz-adv-x="591" glyph-name="five"/>
<glyph unicode="6" d="M35 232c0 48 18 97 50 152l183 316h157l-139 -241c139 20 264 -76 264 -227c0 -136 -108 -242 -257 -242s-258 103 -258 242zM177 232c0 -67 49 -115 116 -115c66 0 115 48 115 115s-49 116 -115 116c-67 0 -116 -49 -116 -116z" horiz-adv-x="585" glyph-name="six"/>
<glyph unicode="7" d="M86 0l275 578h-346v122h498v-106l-275 -594h-152z" horiz-adv-x="538" glyph-name="seven"/>
<glyph unicode="8" d="M45 198c0 72 40 131 109 166c-52 33 -83 85 -83 147c0 110 101 199 236 199s236 -89 236 -199c0 -62 -32 -114 -84 -147c69 -35 110 -94 110 -166c0 -116 -97 -208 -262 -208s-262 92 -262 208zM183 207c0 -54 48 -94 124 -94s123 40 123 94c0 55 -50 97 -123 97 c-74 0 -124 -42 -124 -97zM209 501c0 -48 42 -86 98 -86s97 38 97 86c0 49 -41 86 -97 86s-98 -37 -98 -86z" horiz-adv-x="614" glyph-name="eight"/>
<glyph unicode="9" d="M35 468c0 137 108 242 258 242c149 0 257 -102 257 -242c0 -47 -18 -97 -50 -152l-183 -316h-157l140 242c-139 -21 -265 75 -265 226zM177 468c0 -67 49 -116 116 -116c66 0 115 49 115 116s-49 116 -115 116c-67 0 -116 -49 -116 -116z" horiz-adv-x="585" glyph-name="nine"/>
<glyph d="M40 350c0 205 120 360 286 360s286 -155 286 -360s-120 -360 -286 -360s-286 155 -286 360zM182 350c0 -133 60 -233 144 -233c83 0 144 100 144 233c0 134 -61 234 -144 234c-84 0 -144 -100 -144 -234z" horiz-adv-x="650" glyph-name="zero.tnumlnum"/>
<glyph d="M39 350c0 205 120 360 286 360s286 -155 286 -360s-120 -360 -286 -360s-286 155 -286 360zM181 350c0 -19 1 -37 3 -55l235 235c-24 34 -57 54 -94 54c-83 0 -144 -100 -144 -234zM469 350c0 19 -1 37 -4 54l-234 -234c25 -34 57 -53 94 -53c84 0 144 100 144 233z" horiz-adv-x="650" glyph-name="zero.tnumlnum..zero"/>
<glyph d="M95 0v122h193v431l-193 -50v122l330 85v-588h163v-122h-493z" horiz-adv-x="650" glyph-name="one.tnumlnum"/>
<glyph d="M76 0v122l293 257c33 29 60 66 60 113c0 51 -35 92 -106 92c-63 0 -106 -39 -108 -112l-142 16c10 143 105 222 250 222c148 0 248 -81 248 -214c0 -89 -52 -162 -115 -214l-182 -160h307v-122h-505z" horiz-adv-x="650" glyph-name="two.tnumlnum"/>
<glyph d="M71 212l142 16c2 -72 45 -111 111 -111c76 0 113 43 113 96c0 60 -39 109 -130 109h-62v103l139 153h-279v122h449v-122l-148 -161c98 -19 173 -95 173 -208c0 -133 -102 -219 -256 -219c-147 0 -242 80 -252 222z" horiz-adv-x="650" glyph-name="three.tnumlnum"/>
<glyph d="M41 135v122l346 443l4 -1v1h138v-443h87v-122h-87v-135h-138v135h-350zM190 257h201v258z" horiz-adv-x="650" glyph-name="four.tnumlnum"/>
<glyph d="M72 198l141 17c6 -61 48 -98 111 -98c67 0 117 48 117 115c0 68 -47 116 -112 116c-53 0 -88 -26 -108 -59l-128 16l49 395h387v-122h-279l-19 -154c39 25 82 38 129 38c124 0 223 -89 223 -230c0 -140 -110 -242 -259 -242c-145 0 -238 77 -252 208z" horiz-adv-x="650" glyph-name="five.tnumlnum"/>
<glyph d="M67 232c0 48 18 97 50 152l183 316h157l-139 -241c139 20 264 -76 264 -227c0 -136 -108 -242 -257 -242s-258 103 -258 242zM209 232c0 -67 49 -115 116 -115c66 0 115 48 115 115s-49 116 -115 116c-67 0 -116 -49 -116 -116z" horiz-adv-x="650" glyph-name="six.tnumlnum"/>
<glyph d="M147 0l275 578h-346v122h498v-106l-275 -594h-152z" horiz-adv-x="650" glyph-name="seven.tnumlnum"/>
<glyph d="M62 198c0 72 40 131 109 166c-52 33 -83 85 -83 147c0 110 101 199 236 199s236 -89 236 -199c0 -62 -32 -114 -84 -147c69 -35 110 -94 110 -166c0 -116 -97 -208 -262 -208s-262 92 -262 208zM200 207c0 -54 48 -94 124 -94s123 40 123 94c0 55 -50 97 -123 97 c-74 0 -124 -42 -124 -97zM226 501c0 -48 42 -86 98 -86s97 38 97 86c0 49 -41 86 -97 86s-98 -37 -98 -86z" horiz-adv-x="650" glyph-name="eight.tnumlnum"/>
<glyph d="M67 468c0 137 108 242 258 242c149 0 257 -102 257 -242c0 -47 -18 -97 -50 -152l-183 -316h-157l140 242c-139 -21 -265 75 -265 226zM209 468c0 -67 49 -116 116 -116c66 0 115 49 115 116s-49 116 -115 116c-67 0 -116 -49 -116 -116z" horiz-adv-x="650" glyph-name="nine.tnumlnum"/>
<glyph unicode="^" d="M386 840l205 -515h-140l-142 379l-143 -379h-131l205 515h146z" horiz-adv-x="626" glyph-name="asciicircum"/>
<glyph unicode="~" d="M35 317c20 75 79 129 159 129c92 0 106 -68 153 -68c28 0 51 20 64 54l102 -49c-20 -74 -78 -129 -158 -129c-93 0 -107 67 -154 67c-28 0 -51 -19 -64 -53z" horiz-adv-x="548" glyph-name="asciitilde"/>
<glyph unicode="·" d="M55 268v165h145v-165h-145z" horiz-adv-x="255" glyph-name="periodcentered"/>
<glyph unicode="+" d="M55 289v122h148v148h130v-148h147v-122h-147v-147h-130v147h-148z" horiz-adv-x="535" glyph-name="plus"/>
<glyph unicode="−" d="M55 289v122h425v-122h-425z" horiz-adv-x="535" glyph-name="minus"/>
<glyph unicode="±" d="M55 0v122h425v-122h-425zM55 289v122h148v148h130v-148h147v-122h-147v-147h-130v147h-148z" horiz-adv-x="535" glyph-name="plusminus"/>
<glyph unicode="×" d="M146 142l-86 87l118 118l-118 119l92 92l119 -118l118 118l86 -86l-118 -119l118 -119l-91 -92l-120 119z" horiz-adv-x="535" glyph-name="multiply"/>
<glyph unicode="÷" d="M55 289v122h425v-122h-425zM203 69v150h130v-150h-130zM203 481v150h130v-150h-130z" horiz-adv-x="535" glyph-name="divide"/>
<glyph unicode="&lt;" d="M55 289v122l425 178v-129l-265 -108l265 -107v-133z" horiz-adv-x="535" glyph-name="less"/>
<glyph unicode="&gt;" d="M55 112v129l265 107l-265 107v134l425 -178v-122z" horiz-adv-x="535" glyph-name="greater"/>
<glyph unicode="≤" d="M55 289v122l425 178v-129l-265 -108l265 -107v-245h-425v122h401z" horiz-adv-x="535" glyph-name="lessequal"/>
<glyph unicode="≥" d="M55 0v241l265 107l-265 107v134l425 -178v-122l-401 -167h401v-122h-425z" horiz-adv-x="535" glyph-name="greaterequal"/>
<glyph unicode="=" d="M55 412v122h425v-122h-425zM55 167v122h425v-122h-425z" horiz-adv-x="535" glyph-name="equal"/>
<glyph unicode="≠" d="M55 167v122h127l54 123h-181v122h230l43 100h117l-43 -100h78v-122h-126l-54 -123h180v-122h-229l-43 -100h-117l43 100h-79z" horiz-adv-x="535" glyph-name="notequal"/>
<glyph unicode="≈" d="M29 200c20 75 78 130 159 130c92 0 106 -68 153 -68c28 0 51 19 64 54l101 -49c-19 -75 -77 -129 -158 -129c-92 0 -106 67 -153 67c-28 0 -52 -19 -64 -54zM29 433c20 75 78 130 159 130c92 0 106 -68 153 -68c28 0 51 19 64 54l101 -49c-19 -75 -77 -129 -158 -129 c-92 0 -106 67 -153 67c-28 0 -52 -19 -64 -54z" horiz-adv-x="535" glyph-name="approxequal"/>
<glyph unicode="¬" d="M55 289v122h425v-269h-130v147h-295z" horiz-adv-x="535" glyph-name="logicalnot"/>
<glyph unicode="|" d="M55 -200v1100h123v-1100h-123z" horiz-adv-x="233" glyph-name="bar"/>
<glyph unicode="¦" d="M55 450v450h123v-450h-123zM55 -200v450h123v-450h-123z" horiz-adv-x="233" glyph-name="brokenbar"/>
<glyph unicode="∞" d="M35 350c0 130 101 203 186 203c78 0 139 -50 182 -113c44 63 105 113 183 113c84 0 186 -73 186 -203s-102 -202 -186 -202c-78 0 -139 49 -183 112c-43 -63 -104 -112 -182 -112c-85 0 -186 72 -186 202zM149 350c0 -60 43 -91 84 -91c50 0 85 41 118 91 c-33 50 -68 91 -118 91c-41 0 -84 -31 -84 -91zM456 350c33 -50 67 -91 117 -91c42 0 84 31 84 91s-42 91 -84 91c-50 0 -84 -41 -117 -91z" horiz-adv-x="807" glyph-name="infinity"/>
<glyph unicode="◊" d="M55 349l201 351h137l197 -349l-201 -351h-138zM207 356l118 -220l111 208l-116 220z" horiz-adv-x="645" glyph-name="lozenge"/>
<glyph unicode="∂" d="M35 240c0 146 126 249 258 249c38 0 70 -10 96 -25c-53 111 -184 213 -299 276h207c199 -135 283 -317 283 -485c0 -157 -118 -265 -272 -265c-155 0 -273 108 -273 250zM170 240c0 -74 59 -131 138 -131c78 0 138 57 138 131s-60 131 -138 131c-79 0 -138 -57 -138 -131 z" horiz-adv-x="615" glyph-name="partialdiff"/>
<glyph unicode="µ" d="M55 -200v715h130v-298c0 -64 46 -108 111 -108c63 0 110 44 110 108v298h130v-298c0 -134 -102 -227 -240 -227c-43 0 -81 12 -111 31v-221h-130z" horiz-adv-x="586" glyph-name="uni00B5"/>
<glyph unicode="π" d="M55 0v515h501v-515h-130v401h-241v-401h-130z" horiz-adv-x="611" glyph-name="pi"/>
<glyph unicode="∆" d="M5 0l285 700h153l285 -700h-723zM191 122h342l-171 423z" glyph-name="uni2206"/>
<glyph unicode="∏" d="M55 0v700h623v-700h-138v578h-347v-578h-138z" glyph-name="product"/>
<glyph unicode="∑" d="M55 0v122l175 228l-175 228v122h463v-122h-292l170 -220l-181 -236h303v-122h-463z" horiz-adv-x="560" glyph-name="summation"/>
<glyph unicode="Ω" d="M35 0v122h116c-66 53 -116 141 -116 247c0 193 160 341 368 341c207 0 367 -148 367 -341c0 -106 -49 -194 -116 -247h116v-122h-290v121c95 39 148 127 148 225c0 134 -98 238 -225 238c-128 0 -226 -104 -226 -238c0 -98 53 -186 148 -225v-121h-290z" horiz-adv-x="805" glyph-name="uni2126"/>
<glyph unicode="√" d="M273 0l-160 401h-105v114h200l142 -379l216 564h131l-278 -700h-146z" horiz-adv-x="702" glyph-name="radical"/>
<glyph unicode="∫" d="M25 -175l41 106c29 -13 55 -22 78 -22c43 0 71 26 71 84v508c0 142 75 209 178 209c43 0 93 -11 143 -35l-42 -106c-28 13 -54 22 -77 22c-43 0 -72 -26 -72 -84v-508c0 -142 -74 -209 -177 -209c-44 0 -93 11 -143 35z" horiz-adv-x="561" glyph-name="integral"/>
<glyph unicode="∅" d="M39 140l65 65c-28 40 -44 90 -44 145c0 146 114 257 264 257c53 0 102 -15 143 -39l67 67l75 -75l-65 -65c28 -41 44 -91 44 -145c0 -146 -114 -256 -264 -256c-53 0 -102 14 -143 38l-67 -67zM187 350c0 -19 3 -37 9 -53l185 185c-17 8 -36 13 -57 13 c-78 0 -137 -62 -137 -145zM461 350c0 19 -4 37 -9 53l-186 -186c18 -8 37 -12 58 -12c78 0 137 63 137 145z" horiz-adv-x="641" glyph-name="emptyset"/>
<glyph unicode="°" d="M35 523c0 106 84 187 195 187s195 -81 195 -187c0 -107 -84 -188 -195 -188s-195 81 -195 188zM155 523c0 -43 32 -76 75 -76s76 33 76 76c0 42 -33 76 -76 76s-75 -34 -75 -76z" horiz-adv-x="460" glyph-name="degree"/>
<glyph unicode="ª" d="M268 392v28c-22 -22 -51 -34 -86 -34c-84 0 -147 70 -147 162s63 162 147 162c35 0 64 -13 86 -34v28h101v-312h-101zM140 548c0 -41 27 -70 64 -70c34 0 61 26 64 64v6c0 40 -28 70 -64 70c-37 0 -64 -30 -64 -70z" horiz-adv-x="414" glyph-name="ordfeminine"/>
<glyph unicode="º" d="M35 548c0 92 73 162 169 162s169 -70 169 -162s-73 -162 -169 -162s-169 70 -169 162zM140 548c0 -41 27 -70 64 -70c36 0 64 29 64 70c0 40 -28 70 -64 70c-37 0 -64 -30 -64 -70z" horiz-adv-x="408" glyph-name="ordmasculine"/>
<glyph unicode="&apos;" d="M55 413v287h123v-287h-123z" horiz-adv-x="233" glyph-name="quotesingle"/>
<glyph unicode='&quot;' d="M55 413v287h123v-287h-123zM264 413v287h122v-287h-122z" horiz-adv-x="441" glyph-name="quotedbl"/>
<glyph unicode="_" d="M10 -125v115h495v-115h-495z" horiz-adv-x="515" glyph-name="underscore"/>
<glyph unicode="—" d="M10 202v114h988v-114h-988z" horiz-adv-x="1008" glyph-name="emdash"/>
<glyph unicode="–" d="M10 202v114h488v-114h-488z" horiz-adv-x="508" glyph-name="endash"/>
<glyph unicode="-" d="M35 202v114h260v-114h-260z" horiz-adv-x="330" glyph-name="hyphen"/>
<glyph unicode="‹" d="M35 197v122l244 150v-131l-135 -78l135 -77v-137z" horiz-adv-x="314" glyph-name="guilsinglleft"/>
<glyph unicode="›" d="M279 319v-122l-244 -151v132l135 77l-135 78v136z" horiz-adv-x="314" glyph-name="guilsinglright"/>
<glyph unicode="«" d="M35 197v122l244 150v-131l-135 -78l135 -77v-137zM285 197v122l244 150v-131l-135 -78l135 -77v-137z" horiz-adv-x="564" glyph-name="guillemotleft"/>
<glyph unicode="»" d="M529 319v-122l-244 -151v132l135 77l-135 78v136zM279 319v-122l-244 -151v132l135 77l-135 78v136z" horiz-adv-x="564" glyph-name="guillemotright"/>
<glyph unicode="‚" d="M45 -110l20 275h139l-60 -275h-99z" horiz-adv-x="255" glyph-name="quotesinglbase"/>
<glyph unicode="„" d="M45 -110l20 275h139l-60 -275h-99zM240 -110l20 275h139l-60 -275h-99z" horiz-adv-x="450" glyph-name="quotedblbase"/>
<glyph unicode="’" d="M45 535l20 275h139l-60 -275h-99z" horiz-adv-x="255" glyph-name="quoteright"/>
<glyph unicode="”" d="M45 535l20 275h139l-60 -275h-99zM240 535l20 275h139l-60 -275h-99z" horiz-adv-x="450" glyph-name="quotedblright"/>
<glyph unicode="‘" d="M210 810l-20 -275h-139l60 275h99z" horiz-adv-x="255" glyph-name="quoteleft"/>
<glyph unicode="“" d="M405 810l-20 -275h-139l60 275h99zM210 810l-20 -275h-139l60 275h99z" horiz-adv-x="450" glyph-name="quotedblleft"/>
<glyph unicode="," d="M45 -110l20 275h139l-60 -275h-99z" horiz-adv-x="255" glyph-name="comma"/>
<glyph unicode="." d="M55 0v165h145v-165h-145z" horiz-adv-x="255" glyph-name="period"/>
<glyph unicode=":" d="M55 0v165h145v-165h-145zM55 350v165h145v-165h-145z" horiz-adv-x="255" glyph-name="colon"/>
<glyph unicode=";" d="M45 -110l20 275h139l-60 -275h-99zM55 350v165h145v-165h-145z" horiz-adv-x="255" glyph-name="semicolon"/>
<glyph unicode="…" d="M55 0v165h145v-165h-145zM380 0v165h145v-165h-145zM705 0v165h145v-165h-145z" horiz-adv-x="905" glyph-name="ellipsis"/>
<glyph unicode="?" d="M194 0v150h130v-150h-130zM194 213c0 196 178 188 178 286c0 44 -31 85 -102 85c-63 0 -111 -40 -113 -112l-142 16c10 143 110 222 255 222c151 0 243 -82 243 -196c0 -182 -191 -171 -189 -301h-130z" horiz-adv-x="540" glyph-name="question"/>
<glyph unicode="¿" d="M346 500v-150h-130v150h130zM346 288c0 -197 -178 -188 -178 -287c0 -44 31 -85 102 -85c64 0 111 40 113 112l142 -16c-10 -143 -110 -222 -255 -222c-151 0 -242 82 -242 196c0 182 191 171 188 302h130z" horiz-adv-x="540" glyph-name="questiondown"/>
<glyph unicode="!" d="M85 0v153h130v-153h-130zM85 215v515h130v-515h-130z" horiz-adv-x="300" glyph-name="exclam"/>
<glyph unicode="¡" d="M215 530v-152h-130v152h130zM215 315v-515h-130v515h130z" horiz-adv-x="300" glyph-name="exclamdown"/>
<glyph unicode="(" d="M54 350c0 179 65 348 150 450h134c-85 -102 -150 -271 -150 -450c0 -178 65 -348 150 -450h-134c-85 102 -150 272 -150 450z" horiz-adv-x="348" glyph-name="parenleft"/>
<glyph unicode=")" d="M295 350c0 -179 -65 -348 -150 -450h-135c85 102 150 271 150 450c0 178 -65 348 -150 450h135c85 -102 150 -272 150 -450z" horiz-adv-x="355" glyph-name="parenright"/>
<glyph unicode="[" d="M305 800v-122h-112v-656h112v-122h-250v900h250z" horiz-adv-x="315" glyph-name="bracketleft"/>
<glyph unicode="]" d="M10 -100v122h113v656h-113v122h250v-900h-250z" horiz-adv-x="315" glyph-name="bracketright"/>
<glyph unicode="{" d="M5 289v122c89 0 104 30 104 119v55c0 142 88 215 225 215v-122c-53 0 -88 -41 -88 -108v-53c0 -85 -24 -142 -103 -167c67 -20 103 -69 103 -167v-53c0 -67 35 -108 88 -108v-122c-137 0 -225 73 -225 215v55c0 90 -15 119 -104 119z" horiz-adv-x="344" glyph-name="braceleft"/>
<glyph unicode="}" d="M339 411v-122c-88 0 -104 -29 -104 -119v-55c0 -142 -88 -215 -225 -215v122c54 0 88 41 88 108v53c0 85 24 142 103 167c-67 20 -103 69 -103 167v53c0 67 -34 108 -88 108v122c137 0 225 -73 225 -215v-55c0 -89 16 -119 104 -119z" horiz-adv-x="344" glyph-name="braceright"/>
<glyph unicode="/" d="M-35 -200l289 1100h130l-289 -1100h-130z" horiz-adv-x="349" glyph-name="slash"/>
<glyph unicode="\" d="M95 900l289 -1100h-130l-289 1100h130z" horiz-adv-x="349" glyph-name="backslash"/>
<glyph unicode="⁄" d="M35 0l411 700h132l-412 -700h-131z" horiz-adv-x="613" glyph-name="fraction"/>
<glyph unicode="*" d="M170 340l3 113l-95 -60l-43 74l100 53l-100 53l43 74l95 -60l-3 113h85l-4 -113l96 60l42 -74l-100 -53l100 -53l-42 -74l-96 60l4 -113h-85z" horiz-adv-x="424" glyph-name="asterisk"/>
<glyph unicode="•" d="M78 350c0 94 75 169 168 169c94 0 169 -75 169 -169c0 -93 -75 -169 -169 -169c-93 0 -168 76 -168 169z" horiz-adv-x="493" glyph-name="bullet"/>
<glyph unicode="§" d="M45 256c0 45 24 95 63 134c-31 29 -50 68 -50 127c0 107 103 193 244 193s231 -65 255 -183l-140 -27c-10 64 -59 91 -116 91s-101 -28 -101 -71c0 -124 367 -38 367 -275c0 -47 -24 -97 -64 -135c30 -29 51 -68 51 -127c0 -107 -104 -193 -244 -193 c-141 0 -232 65 -255 183l140 27c10 -64 59 -91 116 -91c56 0 101 28 101 71c0 124 -367 39 -367 276zM190 274c0 -77 111 -78 204 -110c16 17 28 42 28 63c0 75 -112 77 -206 108c-15 -17 -26 -41 -26 -61z" horiz-adv-x="612" glyph-name="section"/>
<glyph unicode="†" d="M201 0v393h-166v122h166v185h138v-185h166v-122h-166v-393h-138z" horiz-adv-x="540" glyph-name="dagger"/>
<glyph unicode="‡" d="M201 0v166h-166v122h166v124h-166v122h166v166h138v-166h166v-122h-166v-124h166v-122h-166v-166h-138z" horiz-adv-x="540" glyph-name="daggerdbl"/>
<glyph unicode="¶" d="M243 0v355h-35c-98 0 -173 74 -173 172c0 99 75 173 173 173h325v-700h-115v593h-60v-593h-115z" horiz-adv-x="618" glyph-name="paragraph"/>
<glyph unicode="©" d="M35 350c0 203 160 360 368 360c207 0 367 -157 367 -360s-160 -360 -367 -360c-208 0 -368 157 -368 360zM137 350c0 -152 116 -269 266 -269s265 117 265 269s-115 270 -265 270s-266 -118 -266 -270zM204 350c0 113 89 200 205 200c82 0 144 -43 176 -105l-83 -45 c-19 36 -52 59 -93 59c-59 0 -103 -46 -103 -109c0 -62 44 -109 103 -109c41 0 74 23 93 59l83 -44c-32 -63 -94 -105 -176 -105c-116 0 -205 86 -205 199z" horiz-adv-x="805" glyph-name="copyright"/>
<glyph unicode="®" d="M35 548c0 92 72 162 167 162c94 0 166 -70 166 -162s-72 -162 -166 -162c-95 0 -167 70 -167 162zM79 548c0 -70 53 -124 123 -124c69 0 123 54 123 124s-54 124 -123 124c-70 0 -123 -54 -123 -124zM229 466l-35 55h-14v-55h-43v164h81c33 0 58 -22 58 -55 c0 -24 -14 -43 -35 -51l37 -58h-49zM180 557h32c11 0 21 6 21 19s-10 19 -21 19h-32v-38z" horiz-adv-x="403" glyph-name="registered"/>
<glyph unicode="™" d="M102 438v204h-82v58h227v-58h-82v-204h-63zM279 438v262h85l64 -174l65 174h81v-262h-62v154l-56 -154h-59l-55 154v-154h-63z" horiz-adv-x="634" glyph-name="trademark"/>
<glyph unicode="@" d="M239 206c0 156 120 281 263 281c67 0 116 -29 145 -76l12 67h116l-55 -311c-5 -30 6 -54 40 -54c48 0 107 63 107 188c0 180 -126 315 -314 315c-235 0 -426 -183 -426 -415c0 -180 125 -315 313 -315c88 0 170 25 238 68l55 -80c-83 -53 -184 -84 -292 -84 c-248 0 -416 175 -416 410c0 285 237 510 529 510c248 0 415 -176 415 -410c0 -172 -108 -290 -235 -290c-46 0 -100 20 -121 75c-45 -47 -111 -80 -180 -80c-112 0 -194 86 -194 201zM361 224c0 -65 42 -112 106 -112c82 0 154 69 154 156c0 64 -42 113 -106 113 c-82 0 -154 -70 -154 -157z" horiz-adv-x="1004" glyph-name="at"/>
<glyph unicode="&amp;" d="M45 192c0 83 37 147 118 188c-36 40 -60 85 -60 137c0 112 84 193 227 193c133 0 225 -82 225 -219h-135c0 63 -33 101 -93 101c-61 0 -89 -39 -89 -76c0 -31 17 -58 50 -86l213 -172c11 25 19 55 20 92h135c-2 -68 -22 -127 -48 -177l94 -76l-77 -106l-97 81 c-62 -54 -144 -82 -237 -82c-165 0 -246 99 -246 202zM180 211c0 -51 35 -102 121 -102c45 0 91 12 129 43l-193 159c-35 -21 -57 -59 -57 -100z" horiz-adv-x="725" glyph-name="ampersand"/>
<glyph unicode="%" d="M35 494c0 123 84 216 200 216s200 -93 200 -216c0 -122 -84 -216 -200 -216s-200 94 -200 216zM155 494c0 -67 33 -119 80 -119c46 0 80 52 80 119c0 68 -34 120 -80 120c-47 0 -80 -52 -80 -120zM228 0l411 700h131l-411 -700h-131zM563 206c0 123 84 216 200 216 s200 -93 200 -216c0 -122 -84 -216 -200 -216s-200 94 -200 216zM683 206c0 -67 33 -119 80 -119c46 0 80 52 80 119c0 68 -34 120 -80 120c-47 0 -80 -52 -80 -120z" horiz-adv-x="998" glyph-name="percent"/>
<glyph unicode="‰" d="M563 206c0 123 84 216 200 216c66 0 122 -31 157 -79c36 48 92 79 158 79c116 0 199 -93 199 -216c0 -122 -83 -216 -199 -216c-66 0 -122 30 -158 79c-35 -49 -91 -79 -157 -79c-116 0 -200 94 -200 216zM35 494c0 123 84 216 200 216s200 -93 200 -216 c0 -122 -84 -216 -200 -216s-200 94 -200 216zM228 0l411 700h131l-411 -700h-131zM997 206c0 -67 34 -119 81 -119c46 0 80 52 80 119c0 68 -34 120 -80 120c-47 0 -81 -52 -81 -120zM155 494c0 -67 33 -119 80 -119c46 0 80 52 80 119c0 68 -34 120 -80 120 c-47 0 -80 -52 -80 -120zM683 206c0 -67 33 -119 80 -119c46 0 80 52 80 119c0 68 -34 120 -80 120c-47 0 -80 -52 -80 -120z" horiz-adv-x="1312" glyph-name="perthousand"/>
<glyph unicode="´" d="M50 579l106 160h144l-120 -160h-130z" horiz-adv-x="350" glyph-name="acute"/>
<glyph unicode="˘" d="M50 738h99c0 -41 24 -69 64 -69c41 0 63 28 63 69h100c0 -103 -67 -165 -163 -165c-95 0 -163 62 -163 165z" horiz-adv-x="426" glyph-name="breve"/>
<glyph unicode="ˇ" d="M163 579l-113 160h122l64 -82l64 82h122l-113 -160h-146z" horiz-adv-x="472" glyph-name="caron"/>
<glyph d="M50 575l31 193h117l-50 -193h-98z" horiz-adv-x="247" glyph-name="caron.salt"/>
<glyph unicode="¸" d="M50 -201l15 104c10 -3 19 -4 28 -4c33 0 52 17 52 42c0 18 -12 40 -36 59h123c25 -31 37 -63 37 -93c0 -66 -57 -117 -147 -117c-22 0 -46 2 -72 9z" horiz-adv-x="319" glyph-name="cedilla"/>
<glyph unicode="ˆ" d="M50 579l113 160h146l113 -160h-122l-64 81l-64 -81h-122z" horiz-adv-x="472" glyph-name="circumflex"/>
<glyph unicode="" d="M50 -210l31 167h124l-49 -167h-106z" horiz-adv-x="255" glyph-name="commaaccent"/>
<glyph unicode="¨" d="M50 583v152h123v-152h-123zM280 583v152h123v-152h-123z" horiz-adv-x="476" glyph-name="dieresis"/>
<glyph unicode="˙" d="M50 583v152h130v-152h-130z" horiz-adv-x="230" glyph-name="dotaccent"/>
<glyph unicode="`" d="M171 579l-121 160h145l105 -160h-129z" horiz-adv-x="350" glyph-name="grave"/>
<glyph unicode="˝" d="M50 579l106 160h129l-120 -160h-115zM239 579l105 160h130l-121 -160h-114z" horiz-adv-x="524" glyph-name="hungarumlaut"/>
<glyph unicode="¯" d="M50 609v100h315v-100h-315z" horiz-adv-x="415" glyph-name="macron"/>
<glyph unicode="˛" d="M96 3l108 -3c-19 -17 -30 -41 -30 -62s13 -39 43 -39c11 0 21 2 35 6l11 -100c-25 -10 -54 -15 -83 -15c-82 0 -130 41 -130 102c0 36 16 73 46 111z" horiz-adv-x="313" glyph-name="ogonek"/>
<glyph unicode="˚" d="M50 659c0 64 55 114 127 114s126 -50 126 -114c0 -65 -54 -114 -126 -114s-127 49 -127 114zM132 659c0 -26 20 -45 45 -45c26 0 45 19 45 45s-19 45 -45 45c-25 0 -45 -19 -45 -45z" horiz-adv-x="353" glyph-name="ring"/>
<glyph unicode="˜" d="M133 592l-83 40c16 60 69 104 133 104c74 0 97 -53 135 -53c22 0 40 15 50 43l82 -40c-16 -60 -68 -104 -132 -104c-75 0 -98 52 -135 52c-23 0 -41 -15 -50 -42z" horiz-adv-x="508" glyph-name="tilde"/>
<glyph d="M50 746l145 154h159l-160 -154h-144z" horiz-adv-x="391" glyph-name="acute.case"/>
<glyph d="M50 900h110c6 -38 34 -62 77 -62s71 24 77 62h110c-10 -101 -89 -159 -187 -159s-177 58 -187 159z" horiz-adv-x="474" glyph-name="breve.case"/>
<glyph d="M197 746l-147 154h144l71 -71l71 71h144l-147 -154h-136z" horiz-adv-x="530" glyph-name="caron.case"/>
<glyph d="M50 746l147 154h136l147 -154h-144l-71 72l-71 -72h-144z" horiz-adv-x="530" glyph-name="circumflex.case"/>
<glyph d="M50 749v152h123v-152h-123zM290 749v152h123v-152h-123z" horiz-adv-x="463" glyph-name="dieresis.case"/>
<glyph d="M50 749v152h130v-152h-130z" horiz-adv-x="230" glyph-name="dotaccent.case"/>
<glyph d="M210 746l-160 154h159l145 -154h-144z" horiz-adv-x="391" glyph-name="grave.case"/>
<glyph d="M50 746l145 154h144l-160 -154h-129zM263 746l144 154h144l-159 -154h-129z" horiz-adv-x="601" glyph-name="hungarumlaut.case"/>
<glyph d="M50 775v100h325v-100h-325z" horiz-adv-x="425" glyph-name="macron.case"/>
<glyph d="M50 834c0 67 56 117 131 117c74 0 130 -50 130 -117c0 -68 -56 -118 -130 -118c-75 0 -131 50 -131 118zM135 834c0 -26 20 -45 46 -45c25 0 45 19 45 45s-20 45 -45 45c-26 0 -46 -19 -46 -45z" horiz-adv-x="361" glyph-name="ring.case"/>
<glyph d="M133 758l-83 40c16 60 69 104 133 104c81 0 106 -52 152 -52c23 0 40 15 50 42l83 -40c-16 -60 -69 -104 -133 -104c-82 0 -107 53 -152 53c-23 0 -41 -15 -50 -43z" horiz-adv-x="518" glyph-name="tilde.case"/>
</font>
</defs>
</svg>
