<?xml version="1.0" encoding="utf-8"?>
<!-- Generator: Adobe Illustrator 24.1.3, SVG Export Plug-In . SVG Version: 6.00 Build 0)  -->
<svg version="1.1" id="Layer_3" xmlns="http://www.w3.org/2000/svg" xmlns:xlink="http://www.w3.org/1999/xlink" x="0px" y="0px"
	 viewBox="0 0 235.2 184.3" style="enable-background:new 0 0 235.2 184.3;" xml:space="preserve">
<g>
	<path d="M235.2,0H0v133.1h235.2V0z M226.7,124.6H8.5V8.5h218.2V124.6z"/>
	<path d="M235.2,159.7H205c-2-9.2-10.1-16.1-19.9-16.1c-10.1,0-18.5,7.4-20.1,17v-0.4H0.3v8.5h164.8v-1.4c1.6,9.6,10,17,20.1,17
		c9.8,0,17.9-6.9,19.9-16.1h30.2V159.7z M185.1,175.8c-6.5,0-11.9-5.3-11.9-11.9c0-6.5,5.3-11.9,11.9-11.9c6.5,0,11.9,5.3,11.9,11.9
		C197,170.5,191.7,175.8,185.1,175.8z"/>
	<path d="M97,31.5v75L159,69L97,31.5z M105.6,46.6l37,22.4l-37,22.4V46.6z"/>
</g>
</svg>
