<svg xmlns="http://www.w3.org/2000/svg" viewBox="0 0 813.79 640.08"><defs><style>.cls-1{fill:#1a1a1a;opacity:0.1;}.cls-2{fill:#fff;}.cls-3{fill:#c7192d;}.cls-4{fill:#fbfbfb;}</style></defs><g id="Layer_2" data-name="Layer 2"><g id="Layer_1-2" data-name="Layer 1"><path class="cls-1" d="M805.56,504.25s-29.84-56.18-92-43.78l1.2-.24-4.27-11c-2.33-50.33-9.34-165.53-26.06-207.42C662.84,187.58,595.24,8.33,345,28.59,228.85,38,155.25,98.11,109.65,160.79h0C102.2,171,95.49,181.34,89.47,191.51l.51-.15c-43,13.21-81.7,45.18-74.09,118.85,8.58,83,51.48,117.65,51.48,117.65s-5.48-28.21-5.83-35.28c0,0,80.55-46.27,211.61,21.27,0,0-21.74-30.05-21.41-39.09,0,0,98.3,62.87,145.83,74.12,0,0-11.83-27.46-13.24-35.82,0,0,27.84,17.44,80.77,51.11,66.13,42.07,74.57,91.69,74.57,91.69s46.42-32.66,53.3-92.55c-.07.65-.15,1.31-.24,2v0c1.06-2.48,2.08-4.94,3.06-7.33,2.05-5,3.86-9.75,5.14-13.66,2.92-8.91,5.07-16.89,6.65-23.85,4.76-20.83,4.45-32.48,4.45-32.51l3.83,7.34h0L662.71,485c.33-.3.67-.59,1-.89-39,33.87-19.05,82.77-17.33,95l10.66-8.61s18.73,40.93,39.09,50.77l.29-11.89s44,17.56,53.2,30.67L755.22,614s10.14,13.91,12.42,17.82c0,0,31.83-33.18,27.35-59,0,0,8.93,8.28,9.59,15.4,0,0,28.16-34.87-14-83ZM593.81,450.09c0,.17,0,.34,0,.52,0-1.07,0-2.15,0-3.23v1.94C593.81,449.57,593.82,449.83,593.81,450.09Zm-.39,8.52c.08-1,.14-1.93.2-2.9C593.56,456.68,593.5,457.65,593.42,458.61Zm.25-3.87c.05-1,.09-2.09.11-3.14C593.76,452.65,593.72,453.7,593.67,454.74Zm-11.26-63c-.57-1.43-1.15-2.87-1.76-4.32C581.26,388.85,581.84,390.29,582.41,391.72Zm1.86,4.95c-.51-1.41-1-2.83-1.59-4.25C583.24,393.84,583.76,395.26,584.27,396.67Zm1.71,5c-.45-1.37-.92-2.74-1.41-4.13C585.06,398.89,585.53,400.26,586,401.63Zm.9,2.83c.22.71.44,1.41.65,2.12-.4-1.36-.83-2.73-1.27-4.11C586.47,403.14,586.68,403.8,586.88,404.46Zm2,7c-.36-1.38-.75-2.78-1.16-4.18C588.14,408.69,588.53,410.09,588.89,411.47Zm1.1,4.44c-.31-1.33-.64-2.66-1-4C589.35,413.25,589.68,414.58,590,415.91Zm1,4.48c-.27-1.33-.55-2.66-.86-4C590.41,417.73,590.69,419.06,591,420.39Zm.84,4.55c-.21-1.25-.44-2.52-.69-3.79C591.36,422.42,591.59,423.69,591.8,424.94Zm.71,4.55c-.17-1.22-.36-2.44-.56-3.68C592.15,427.05,592.34,428.27,592.51,429.49Zm.55,4.52c-.13-1.21-.28-2.43-.44-3.66C592.78,431.58,592.93,432.8,593.06,434Zm.38,4.19c-.09-1.14-.19-2.3-.31-3.46C593.25,435.9,593.35,437.06,593.44,438.2Zm.24,4.05c0-1.12-.12-2.26-.2-3.4C593.56,440,593.63,441.13,593.68,442.25Zm.12,4.18c0-1.12,0-2.23-.08-3.36C593.76,444.2,593.79,445.31,593.8,446.43Zm-7.67-54.73c2.59,2.15,5.76,4.85,8.83,7.63-1-.89-2-1.77-3-2.63C589.92,394.88,587.89,393.17,586.13,391.7ZM545.85,547.94,545,549Zm-1.19,1.52L543,551.6Zm-2.09,2.68-.55.7ZM94.59,190l-.7.19Zm2.24-.61-.69.19Zm2.24-.56-.68.16Zm2.23-.54-.64.15Zm2.25-.5-.61.13Zm2.23-.48-.56.12Zm2.23-.45-.48.1Zm2.23-.42-.39.07Zm2.23-.39-.28,0Zm2.23-.37-.13,0Zm77.43-.36c-5.29,4.29-9.87,7.75-13.66,10.49l-.36.25c3.86-2.77,8.56-6.31,14-10.74ZM345.3,208.16a31.94,31.94,0,0,0-12.92,5.18,64.26,64.26,0,0,0-6.56,4.89c5.44-4.61,12.44-9.21,19.48-10.07ZM592.59,377.8c9.42,19.32,12.9,32.55,12.9,32.55h0c0-.12-10.11-38.34-42.33-79.75A269.5,269.5,0,0,1,592.59,377.8ZM92.31,190.66l-.66.19Zm73.58,13.52a416.81,416.81,0,0,1,64.05-7.65,415.51,415.51,0,0,0-64.05,7.66Zm374,351.37-.23.28Zm1.9-2.44-.3.39Zm-1.41,1.81-.24.31Zm9.17-11.74Zm-1.83,2.34c.32-.41.61-.79.87-1.11Zm1.32-1.69a1.71,1.71,0,0,1,.11-.14A1.71,1.71,0,0,0,549.06,543.83Zm.29-.38.21-.26C549.52,543.25,549.45,543.33,549.35,543.45Zm44-83.79c-.08.86-.16,1.72-.25,2.58C593.18,461.38,593.26,460.52,593.34,459.66Zm119.59.94c-.95.2-1.91.41-2.87.64C711,461,712,460.8,712.93,460.6ZM683,471.32c1.9-1,3.89-1.92,6-2.84C686.93,469.4,684.94,470.35,683,471.32Zm-18.5,12.13,1.53-1.26Zm2.21-1.81c.63-.49,1.27-1,1.93-1.48C668,480.65,667.38,481.15,666.75,481.64Zm2.19-1.67c.68-.5,1.37-1,2.08-1.48C670.31,479,669.62,479.47,668.94,480Zm2.68-1.9q1.14-.78,2.34-1.56Q672.76,477.29,671.62,478.07Zm2.35-1.56c.81-.52,1.64-1,2.48-1.53C675.61,475.48,674.78,476,674,476.51Zm3.08-1.89q2.57-1.53,5.37-3Q679.62,473.1,677.05,474.62Zm12.53-6.4c1-.46,2.11-.92,3.2-1.37s2.25-.9,3.37-1.32c-1.11.42-2.24.86-3.37,1.32S690.63,467.76,689.58,468.22Zm20.32-6.94c-2.11.5-4.27,1.09-6.45,1.76C705.63,462.37,707.79,461.78,709.9,461.28Zm-7,1.94c-.88.27-1.76.56-2.65.86C701.11,463.78,702,463.49,702.87,463.22Zm-3.41,1.12c-.89.3-1.78.62-2.68,1C697.68,465,698.57,464.64,699.46,464.34Z"/><path class="cls-2" d="M532.51,518.91l-.63.8Z"/><path class="cls-3" d="M699.87,433.23a112.06,112.06,0,0,0-22,6.62c-12.71,5.22-22.54,11.42-30.07,18.19L601,368.24l-3.84-7.35s.57,20.72-11.1,56.37c-1.88,5.76-4.91,13.3-8.19,21v0c2.91-22.28.37-48.41-12.18-78.1,0,0,20.13,15.87,24.94,23.18,0,0-50.72-193-289.84-181.81,0,0,14.75-18.56,29.65-20.38,0,0-78.39-24.14-179.42-4,0,0,9.68-5.41,26.24-18.84,0,0-54.2-8.88-102.65,6.17,6-10.17,12.72-20.48,20.17-30.72C140.33,71.11,213.93,11,330,1.59c250.28-20.26,317.88,159,339.49,213.23,16.72,41.89,23.74,157.09,26.06,207.42Z"/><path class="cls-1" d="M590.89,337.12A180.61,180.61,0,0,1,601,368.24l-3.84-7.35s.57,20.72-11.1,56.37c-1.88,5.76-4.91,13.29-8.2,21,2.9-22.27.37-48.4-12.18-78.08,0,0,20.13,15.87,24.93,23.18,0,0-50.71-193-289.83-181.81,0,0,14.75-18.56,29.66-20.38,0,0-78.4-24.14-179.43-4,0,0,9.68-5.41,26.24-18.84,0,0-54.2-8.88-102.65,6.17,6-10.17,12.72-20.48,20.17-30.72,47.46-12.13,97.17-4,97.17-4-17,13.79-27,19.36-27,19.36,103.77-20.72,184.31,4.08,184.31,4.08-15.31,1.87-30.47,20.93-30.47,20.93C564.4,162.64,616.49,360.93,616.49,360.93,611.56,353.42,590.89,337.12,590.89,337.12Z"/><path class="cls-4" d="M177.2,158.34S-15.19,126.81,1,283.21c8.58,83,51.49,117.65,51.49,117.65S47,372.65,46.62,365.58h0s80.54-46.27,211.6,21.27h0s-21.74-30.05-21.4-39.09c0,0,98.29,62.87,145.83,74.12,0,0-11.84-27.46-13.25-35.82,0,0,27.84,17.44,80.77,51.11,66.14,42.07,74.57,91.69,74.57,91.69h0S611.21,468,565.63,360.17c0,0,20.13,15.87,24.93,23.18,0,0-50.71-193-289.83-181.81,0,0,14.75-18.56,29.66-20.38,0,0-78.4-24.14-179.43-4C151,177.19,160.64,171.77,177.2,158.34Z"/><path class="cls-4" d="M790.63,477.25s-36.48-68.7-112.77-37.4-48.43,97.75-46.39,112.29l10.67-8.61s18.73,40.93,39.09,50.77l.28-11.89s44,17.56,53.21,30.67L740.29,587s10.15,13.91,12.42,17.82c0,0,31.83-33.18,27.36-59,0,0,8.93,8.28,9.59,15.4,0,0,28.16-34.87-14-83Z"/></g></g></svg>